ISO-10303-21;
HEADER;
/* Generated by software containing ST-Developer
 * from STEP Tools, Inc. (www.steptools.com) 
 */
/* OPTION: using custom renumber hook */

FILE_DESCRIPTION(
/* description */ ('STEP AP242 Edition 2',
'CAx-IF Rec.Pracs.---Representation and Presentation of Product Manufa
cturing Information (PMI)---4.0---2014-10-13',
'CAx-IF Rec.Pracs.---3D Tessellated Geometry---0.4---2014-09-14','2;1',
'CAx-IF Rec.Pracs.---User Defined Attributes---1.5---2016-08-15'),
/* implementation_level */ '2;1');

FILE_NAME(
/* name */ 'Part Studio',
/* time_stamp */ '2026-10-01T18:32:50Z',
/* author */ (''),
/* organization */ (''),
/* preprocessor_version */ 'ST-DEVELOPER v20',
/* originating_system */ 'ONSHAPE BY PTC INC, 1.221',
/* authorisation */ '  ');

FILE_SCHEMA (('AP242_MANAGED_MODEL_BASED_3D_ENGINEERING_MIM_LF { 1 0 10303 442 3 1 4 }'));
ENDSEC;

DATA;
#10=LINE('',#1472,#68);
#11=LINE('',#1475,#69);
#12=LINE('',#1477,#70);
#13=LINE('',#1479,#71);
#14=LINE('',#1483,#72);
#15=LINE('',#1487,#73);
#16=LINE('',#1489,#74);
#17=LINE('',#1491,#75);
#18=LINE('',#1495,#76);
#19=LINE('',#1501,#77);
#20=LINE('',#1507,#78);
#21=LINE('',#1511,#79);
#22=LINE('',#1513,#80);
#23=LINE('',#1515,#81);
#24=LINE('',#1551,#82);
#25=LINE('',#1555,#83);
#26=LINE('',#1557,#84);
#27=LINE('',#1559,#85);
#28=LINE('',#1561,#86);
#29=LINE('',#1565,#87);
#30=LINE('',#1569,#88);
#31=LINE('',#1571,#89);
#32=LINE('',#1573,#90);
#33=LINE('',#1577,#91);
#34=LINE('',#1581,#92);
#35=LINE('',#1583,#93);
#36=LINE('',#1585,#94);
#37=LINE('',#1589,#95);
#38=LINE('',#1593,#96);
#39=LINE('',#1595,#97);
#40=LINE('',#1597,#98);
#41=LINE('',#1601,#99);
#42=LINE('',#1640,#100);
#43=LINE('',#1641,#101);
#44=LINE('',#1653,#102);
#45=LINE('',#1658,#103);
#46=LINE('',#1662,#104);
#47=LINE('',#1666,#105);
#48=LINE('',#1670,#106);
#49=LINE('',#1674,#107);
#50=LINE('',#1683,#108);
#51=LINE('',#1687,#109);
#52=LINE('',#1691,#110);
#53=LINE('',#1695,#111);
#54=LINE('',#1699,#112);
#55=LINE('',#1703,#113);
#56=LINE('',#1705,#114);
#57=LINE('',#1706,#115);
#58=LINE('',#1708,#116);
#59=LINE('',#1709,#117);
#60=LINE('',#1711,#118);
#61=LINE('',#1712,#119);
#62=LINE('',#1714,#120);
#63=LINE('',#1715,#121);
#64=LINE('',#1717,#122);
#65=LINE('',#1718,#123);
#66=LINE('',#1720,#124);
#67=LINE('',#1721,#125);
#68=VECTOR('',#1177,1.);
#69=VECTOR('',#1178,1.);
#70=VECTOR('',#1179,1.);
#71=VECTOR('',#1180,1.);
#72=VECTOR('',#1185,1.);
#73=VECTOR('',#1190,1.);
#74=VECTOR('',#1191,1.);
#75=VECTOR('',#1192,1.);
#76=VECTOR('',#1197,1.);
#77=VECTOR('',#1204,1.);
#78=VECTOR('',#1211,1.);
#79=VECTOR('',#1216,1.);
#80=VECTOR('',#1217,1.);
#81=VECTOR('',#1218,1.);
#82=VECTOR('',#1265,1.);
#83=VECTOR('',#1268,1.);
#84=VECTOR('',#1271,1.);
#85=VECTOR('',#1272,1.);
#86=VECTOR('',#1273,1.);
#87=VECTOR('',#1278,1.);
#88=VECTOR('',#1283,1.);
#89=VECTOR('',#1284,1.);
#90=VECTOR('',#1285,1.);
#91=VECTOR('',#1290,1.);
#92=VECTOR('',#1295,1.);
#93=VECTOR('',#1296,1.);
#94=VECTOR('',#1297,1.);
#95=VECTOR('',#1302,1.);
#96=VECTOR('',#1307,1.);
#97=VECTOR('',#1308,1.);
#98=VECTOR('',#1309,1.);
#99=VECTOR('',#1314,1.);
#100=VECTOR('',#1361,1.);
#101=VECTOR('',#1362,1.);
#102=VECTOR('',#1379,1.);
#103=VECTOR('',#1382,1.);
#104=VECTOR('',#1385,1.);
#105=VECTOR('',#1388,1.);
#106=VECTOR('',#1391,1.);
#107=VECTOR('',#1394,1.);
#108=VECTOR('',#1403,1.);
#109=VECTOR('',#1406,1.);
#110=VECTOR('',#1409,1.);
#111=VECTOR('',#1412,1.);
#112=VECTOR('',#1415,1.);
#113=VECTOR('',#1418,1.);
#114=VECTOR('',#1421,1.);
#115=VECTOR('',#1422,1.);
#116=VECTOR('',#1425,1.);
#117=VECTOR('',#1426,1.);
#118=VECTOR('',#1429,1.);
#119=VECTOR('',#1430,1.);
#120=VECTOR('',#1433,1.);
#121=VECTOR('',#1434,1.);
#122=VECTOR('',#1437,1.);
#123=VECTOR('',#1438,1.);
#124=VECTOR('',#1441,1.);
#125=VECTOR('',#1442,1.);
#126=SHAPE_REPRESENTATION_RELATIONSHIP('','',#1029,#130);
#127=SHAPE_REPRESENTATION_RELATIONSHIP('','',#1030,#131);
#128=SHAPE_REPRESENTATION_RELATIONSHIP('','',#1031,#132);
#129=SHAPE_REPRESENTATION_RELATIONSHIP('','',#1032,#133);
#130=ADVANCED_BREP_SHAPE_REPRESENTATION('',(#1021),#1733);
#131=ADVANCED_BREP_SHAPE_REPRESENTATION('',(#1022),#1734);
#132=ADVANCED_BREP_SHAPE_REPRESENTATION('',(#1023),#1735);
#133=ADVANCED_BREP_SHAPE_REPRESENTATION('',(#1024),#1736);
#134=PLANE('',#1037);
#135=PLANE('',#1039);
#136=PLANE('',#1043);
#137=PLANE('',#1047);
#138=PLANE('',#1057);
#139=PLANE('',#1076);
#140=PLANE('',#1077);
#141=PLANE('',#1082);
#142=PLANE('',#1086);
#143=PLANE('',#1090);
#144=PLANE('',#1094);
#145=PLANE('',#1119);
#146=PLANE('',#1123);
#147=PLANE('',#1124);
#148=PLANE('',#1126);
#149=PLANE('',#1134);
#150=PLANE('',#1142);
#151=PLANE('',#1143);
#152=PLANE('',#1144);
#153=PLANE('',#1145);
#154=PLANE('',#1146);
#155=PLANE('',#1147);
#156=ORIENTED_EDGE('',*,*,#400,.F.);
#157=ORIENTED_EDGE('',*,*,#401,.T.);
#158=ORIENTED_EDGE('',*,*,#402,.T.);
#159=ORIENTED_EDGE('',*,*,#400,.T.);
#160=ORIENTED_EDGE('',*,*,#403,.F.);
#161=ORIENTED_EDGE('',*,*,#401,.F.);
#162=ORIENTED_EDGE('',*,*,#402,.F.);
#163=ORIENTED_EDGE('',*,*,#403,.T.);
#164=ORIENTED_EDGE('',*,*,#404,.F.);
#165=ORIENTED_EDGE('',*,*,#405,.F.);
#166=ORIENTED_EDGE('',*,*,#406,.T.);
#167=ORIENTED_EDGE('',*,*,#407,.T.);
#168=ORIENTED_EDGE('',*,*,#408,.T.);
#169=ORIENTED_EDGE('',*,*,#409,.F.);
#170=ORIENTED_EDGE('',*,*,#410,.F.);
#171=ORIENTED_EDGE('',*,*,#405,.T.);
#172=ORIENTED_EDGE('',*,*,#411,.T.);
#173=ORIENTED_EDGE('',*,*,#412,.F.);
#174=ORIENTED_EDGE('',*,*,#413,.F.);
#175=ORIENTED_EDGE('',*,*,#409,.T.);
#176=ORIENTED_EDGE('',*,*,#414,.T.);
#177=ORIENTED_EDGE('',*,*,#415,.F.);
#178=ORIENTED_EDGE('',*,*,#416,.F.);
#179=ORIENTED_EDGE('',*,*,#412,.T.);
#180=ORIENTED_EDGE('',*,*,#417,.F.);
#181=ORIENTED_EDGE('',*,*,#418,.F.);
#182=ORIENTED_EDGE('',*,*,#419,.T.);
#183=ORIENTED_EDGE('',*,*,#415,.T.);
#184=ORIENTED_EDGE('',*,*,#420,.F.);
#185=ORIENTED_EDGE('',*,*,#421,.F.);
#186=ORIENTED_EDGE('',*,*,#422,.T.);
#187=ORIENTED_EDGE('',*,*,#418,.T.);
#188=ORIENTED_EDGE('',*,*,#423,.F.);
#189=ORIENTED_EDGE('',*,*,#424,.F.);
#190=ORIENTED_EDGE('',*,*,#425,.T.);
#191=ORIENTED_EDGE('',*,*,#421,.T.);
#192=ORIENTED_EDGE('',*,*,#426,.T.);
#193=ORIENTED_EDGE('',*,*,#427,.F.);
#194=ORIENTED_EDGE('',*,*,#428,.T.);
#195=ORIENTED_EDGE('',*,*,#429,.F.);
#196=ORIENTED_EDGE('',*,*,#430,.T.);
#197=ORIENTED_EDGE('',*,*,#431,.F.);
#198=ORIENTED_EDGE('',*,*,#432,.T.);
#199=ORIENTED_EDGE('',*,*,#433,.F.);
#200=ORIENTED_EDGE('',*,*,#434,.T.);
#201=ORIENTED_EDGE('',*,*,#407,.F.);
#202=ORIENTED_EDGE('',*,*,#435,.F.);
#203=ORIENTED_EDGE('',*,*,#424,.T.);
#204=ORIENTED_EDGE('',*,*,#436,.F.);
#205=ORIENTED_EDGE('',*,*,#437,.T.);
#206=ORIENTED_EDGE('',*,*,#406,.F.);
#207=ORIENTED_EDGE('',*,*,#410,.T.);
#208=ORIENTED_EDGE('',*,*,#413,.T.);
#209=ORIENTED_EDGE('',*,*,#416,.T.);
#210=ORIENTED_EDGE('',*,*,#419,.F.);
#211=ORIENTED_EDGE('',*,*,#422,.F.);
#212=ORIENTED_EDGE('',*,*,#425,.F.);
#213=ORIENTED_EDGE('',*,*,#435,.T.);
#214=ORIENTED_EDGE('',*,*,#432,.F.);
#215=ORIENTED_EDGE('',*,*,#430,.F.);
#216=ORIENTED_EDGE('',*,*,#428,.F.);
#217=ORIENTED_EDGE('',*,*,#426,.F.);
#218=ORIENTED_EDGE('',*,*,#436,.T.);
#219=ORIENTED_EDGE('',*,*,#404,.T.);
#220=ORIENTED_EDGE('',*,*,#434,.F.);
#221=ORIENTED_EDGE('',*,*,#423,.T.);
#222=ORIENTED_EDGE('',*,*,#420,.T.);
#223=ORIENTED_EDGE('',*,*,#417,.T.);
#224=ORIENTED_EDGE('',*,*,#414,.F.);
#225=ORIENTED_EDGE('',*,*,#411,.F.);
#226=ORIENTED_EDGE('',*,*,#408,.F.);
#227=ORIENTED_EDGE('',*,*,#433,.T.);
#228=ORIENTED_EDGE('',*,*,#431,.T.);
#229=ORIENTED_EDGE('',*,*,#429,.T.);
#230=ORIENTED_EDGE('',*,*,#427,.T.);
#231=ORIENTED_EDGE('',*,*,#437,.F.);
#232=ORIENTED_EDGE('',*,*,#438,.F.);
#233=ORIENTED_EDGE('',*,*,#439,.F.);
#234=ORIENTED_EDGE('',*,*,#440,.T.);
#235=ORIENTED_EDGE('',*,*,#441,.T.);
#236=ORIENTED_EDGE('',*,*,#442,.F.);
#237=ORIENTED_EDGE('',*,*,#443,.F.);
#238=ORIENTED_EDGE('',*,*,#444,.T.);
#239=ORIENTED_EDGE('',*,*,#439,.T.);
#240=ORIENTED_EDGE('',*,*,#445,.T.);
#241=ORIENTED_EDGE('',*,*,#446,.F.);
#242=ORIENTED_EDGE('',*,*,#447,.F.);
#243=ORIENTED_EDGE('',*,*,#443,.T.);
#244=ORIENTED_EDGE('',*,*,#448,.T.);
#245=ORIENTED_EDGE('',*,*,#449,.F.);
#246=ORIENTED_EDGE('',*,*,#450,.F.);
#247=ORIENTED_EDGE('',*,*,#446,.T.);
#248=ORIENTED_EDGE('',*,*,#451,.T.);
#249=ORIENTED_EDGE('',*,*,#452,.F.);
#250=ORIENTED_EDGE('',*,*,#453,.F.);
#251=ORIENTED_EDGE('',*,*,#449,.T.);
#252=ORIENTED_EDGE('',*,*,#454,.T.);
#253=ORIENTED_EDGE('',*,*,#455,.F.);
#254=ORIENTED_EDGE('',*,*,#456,.F.);
#255=ORIENTED_EDGE('',*,*,#452,.T.);
#256=ORIENTED_EDGE('',*,*,#457,.F.);
#257=ORIENTED_EDGE('',*,*,#458,.F.);
#258=ORIENTED_EDGE('',*,*,#459,.T.);
#259=ORIENTED_EDGE('',*,*,#455,.T.);
#260=ORIENTED_EDGE('',*,*,#460,.F.);
#261=ORIENTED_EDGE('',*,*,#461,.F.);
#262=ORIENTED_EDGE('',*,*,#462,.T.);
#263=ORIENTED_EDGE('',*,*,#458,.T.);
#264=ORIENTED_EDGE('',*,*,#463,.F.);
#265=ORIENTED_EDGE('',*,*,#464,.F.);
#266=ORIENTED_EDGE('',*,*,#465,.T.);
#267=ORIENTED_EDGE('',*,*,#461,.T.);
#268=ORIENTED_EDGE('',*,*,#466,.T.);
#269=ORIENTED_EDGE('',*,*,#467,.F.);
#270=ORIENTED_EDGE('',*,*,#468,.T.);
#271=ORIENTED_EDGE('',*,*,#469,.F.);
#272=ORIENTED_EDGE('',*,*,#470,.T.);
#273=ORIENTED_EDGE('',*,*,#471,.F.);
#274=ORIENTED_EDGE('',*,*,#472,.T.);
#275=ORIENTED_EDGE('',*,*,#473,.F.);
#276=ORIENTED_EDGE('',*,*,#474,.T.);
#277=ORIENTED_EDGE('',*,*,#475,.F.);
#278=ORIENTED_EDGE('',*,*,#476,.T.);
#279=ORIENTED_EDGE('',*,*,#477,.F.);
#280=ORIENTED_EDGE('',*,*,#478,.T.);
#281=ORIENTED_EDGE('',*,*,#479,.F.);
#282=ORIENTED_EDGE('',*,*,#480,.F.);
#283=ORIENTED_EDGE('',*,*,#441,.F.);
#284=ORIENTED_EDGE('',*,*,#481,.T.);
#285=ORIENTED_EDGE('',*,*,#464,.T.);
#286=ORIENTED_EDGE('',*,*,#482,.T.);
#287=ORIENTED_EDGE('',*,*,#483,.F.);
#288=ORIENTED_EDGE('',*,*,#440,.F.);
#289=ORIENTED_EDGE('',*,*,#444,.F.);
#290=ORIENTED_EDGE('',*,*,#447,.T.);
#291=ORIENTED_EDGE('',*,*,#450,.T.);
#292=ORIENTED_EDGE('',*,*,#453,.T.);
#293=ORIENTED_EDGE('',*,*,#456,.T.);
#294=ORIENTED_EDGE('',*,*,#459,.F.);
#295=ORIENTED_EDGE('',*,*,#462,.F.);
#296=ORIENTED_EDGE('',*,*,#465,.F.);
#297=ORIENTED_EDGE('',*,*,#481,.F.);
#298=ORIENTED_EDGE('',*,*,#478,.F.);
#299=ORIENTED_EDGE('',*,*,#476,.F.);
#300=ORIENTED_EDGE('',*,*,#474,.F.);
#301=ORIENTED_EDGE('',*,*,#472,.F.);
#302=ORIENTED_EDGE('',*,*,#470,.F.);
#303=ORIENTED_EDGE('',*,*,#468,.F.);
#304=ORIENTED_EDGE('',*,*,#466,.F.);
#305=ORIENTED_EDGE('',*,*,#482,.F.);
#306=ORIENTED_EDGE('',*,*,#438,.T.);
#307=ORIENTED_EDGE('',*,*,#480,.T.);
#308=ORIENTED_EDGE('',*,*,#463,.T.);
#309=ORIENTED_EDGE('',*,*,#460,.T.);
#310=ORIENTED_EDGE('',*,*,#457,.T.);
#311=ORIENTED_EDGE('',*,*,#454,.F.);
#312=ORIENTED_EDGE('',*,*,#451,.F.);
#313=ORIENTED_EDGE('',*,*,#448,.F.);
#314=ORIENTED_EDGE('',*,*,#445,.F.);
#315=ORIENTED_EDGE('',*,*,#442,.T.);
#316=ORIENTED_EDGE('',*,*,#479,.T.);
#317=ORIENTED_EDGE('',*,*,#477,.T.);
#318=ORIENTED_EDGE('',*,*,#475,.T.);
#319=ORIENTED_EDGE('',*,*,#473,.T.);
#320=ORIENTED_EDGE('',*,*,#471,.T.);
#321=ORIENTED_EDGE('',*,*,#469,.T.);
#322=ORIENTED_EDGE('',*,*,#467,.T.);
#323=ORIENTED_EDGE('',*,*,#483,.T.);
#324=ORIENTED_EDGE('',*,*,#484,.F.);
#325=ORIENTED_EDGE('',*,*,#485,.F.);
#326=ORIENTED_EDGE('',*,*,#486,.T.);
#327=ORIENTED_EDGE('',*,*,#487,.F.);
#328=ORIENTED_EDGE('',*,*,#488,.T.);
#329=ORIENTED_EDGE('',*,*,#489,.F.);
#330=ORIENTED_EDGE('',*,*,#490,.T.);
#331=ORIENTED_EDGE('',*,*,#491,.F.);
#332=ORIENTED_EDGE('',*,*,#492,.T.);
#333=ORIENTED_EDGE('',*,*,#493,.F.);
#334=ORIENTED_EDGE('',*,*,#494,.T.);
#335=ORIENTED_EDGE('',*,*,#495,.F.);
#336=ORIENTED_EDGE('',*,*,#496,.T.);
#337=ORIENTED_EDGE('',*,*,#497,.T.);
#338=ORIENTED_EDGE('',*,*,#498,.F.);
#339=ORIENTED_EDGE('',*,*,#499,.T.);
#340=ORIENTED_EDGE('',*,*,#500,.F.);
#341=ORIENTED_EDGE('',*,*,#501,.T.);
#342=ORIENTED_EDGE('',*,*,#502,.F.);
#343=ORIENTED_EDGE('',*,*,#503,.T.);
#344=ORIENTED_EDGE('',*,*,#504,.F.);
#345=ORIENTED_EDGE('',*,*,#505,.T.);
#346=ORIENTED_EDGE('',*,*,#506,.F.);
#347=ORIENTED_EDGE('',*,*,#507,.T.);
#348=ORIENTED_EDGE('',*,*,#508,.F.);
#349=ORIENTED_EDGE('',*,*,#509,.T.);
#350=ORIENTED_EDGE('',*,*,#510,.F.);
#351=ORIENTED_EDGE('',*,*,#495,.T.);
#352=ORIENTED_EDGE('',*,*,#511,.F.);
#353=ORIENTED_EDGE('',*,*,#501,.F.);
#354=ORIENTED_EDGE('',*,*,#512,.F.);
#355=ORIENTED_EDGE('',*,*,#493,.T.);
#356=ORIENTED_EDGE('',*,*,#513,.F.);
#357=ORIENTED_EDGE('',*,*,#503,.F.);
#358=ORIENTED_EDGE('',*,*,#514,.F.);
#359=ORIENTED_EDGE('',*,*,#491,.T.);
#360=ORIENTED_EDGE('',*,*,#515,.F.);
#361=ORIENTED_EDGE('',*,*,#505,.F.);
#362=ORIENTED_EDGE('',*,*,#516,.F.);
#363=ORIENTED_EDGE('',*,*,#489,.T.);
#364=ORIENTED_EDGE('',*,*,#517,.F.);
#365=ORIENTED_EDGE('',*,*,#507,.F.);
#366=ORIENTED_EDGE('',*,*,#518,.F.);
#367=ORIENTED_EDGE('',*,*,#487,.T.);
#368=ORIENTED_EDGE('',*,*,#519,.F.);
#369=ORIENTED_EDGE('',*,*,#509,.F.);
#370=ORIENTED_EDGE('',*,*,#520,.F.);
#371=ORIENTED_EDGE('',*,*,#485,.T.);
#372=ORIENTED_EDGE('',*,*,#521,.F.);
#373=ORIENTED_EDGE('',*,*,#499,.F.);
#374=ORIENTED_EDGE('',*,*,#497,.F.);
#375=ORIENTED_EDGE('',*,*,#484,.T.);
#376=ORIENTED_EDGE('',*,*,#510,.T.);
#377=ORIENTED_EDGE('',*,*,#500,.T.);
#378=ORIENTED_EDGE('',*,*,#521,.T.);
#379=ORIENTED_EDGE('',*,*,#496,.F.);
#380=ORIENTED_EDGE('',*,*,#512,.T.);
#381=ORIENTED_EDGE('',*,*,#502,.T.);
#382=ORIENTED_EDGE('',*,*,#511,.T.);
#383=ORIENTED_EDGE('',*,*,#494,.F.);
#384=ORIENTED_EDGE('',*,*,#514,.T.);
#385=ORIENTED_EDGE('',*,*,#504,.T.);
#386=ORIENTED_EDGE('',*,*,#513,.T.);
#387=ORIENTED_EDGE('',*,*,#492,.F.);
#388=ORIENTED_EDGE('',*,*,#516,.T.);
#389=ORIENTED_EDGE('',*,*,#506,.T.);
#390=ORIENTED_EDGE('',*,*,#515,.T.);
#391=ORIENTED_EDGE('',*,*,#490,.F.);
#392=ORIENTED_EDGE('',*,*,#518,.T.);
#393=ORIENTED_EDGE('',*,*,#508,.T.);
#394=ORIENTED_EDGE('',*,*,#517,.T.);
#395=ORIENTED_EDGE('',*,*,#488,.F.);
#396=ORIENTED_EDGE('',*,*,#520,.T.);
#397=ORIENTED_EDGE('',*,*,#498,.T.);
#398=ORIENTED_EDGE('',*,*,#519,.T.);
#399=ORIENTED_EDGE('',*,*,#486,.F.);
#400=EDGE_CURVE('',#522,#522,#614,.T.);
#401=EDGE_CURVE('',#523,#523,#615,.T.);
#402=EDGE_CURVE('',#524,#524,#616,.F.);
#403=EDGE_CURVE('',#525,#525,#617,.F.);
#404=EDGE_CURVE('',#526,#527,#10,.T.);
#405=EDGE_CURVE('',#528,#526,#11,.T.);
#406=EDGE_CURVE('',#528,#529,#12,.T.);
#407=EDGE_CURVE('',#529,#527,#13,.T.);
#408=EDGE_CURVE('',#526,#530,#618,.T.);
#409=EDGE_CURVE('',#531,#530,#14,.T.);
#410=EDGE_CURVE('',#528,#531,#619,.T.);
#411=EDGE_CURVE('',#530,#532,#15,.T.);
#412=EDGE_CURVE('',#533,#532,#16,.T.);
#413=EDGE_CURVE('',#531,#533,#17,.T.);
#414=EDGE_CURVE('',#532,#534,#620,.T.);
#415=EDGE_CURVE('',#535,#534,#18,.T.);
#416=EDGE_CURVE('',#533,#535,#621,.T.);
#417=EDGE_CURVE('',#536,#534,#622,.T.);
#418=EDGE_CURVE('',#537,#536,#19,.T.);
#419=EDGE_CURVE('',#537,#535,#623,.T.);
#420=EDGE_CURVE('',#538,#536,#624,.T.);
#421=EDGE_CURVE('',#539,#538,#20,.T.);
#422=EDGE_CURVE('',#539,#537,#625,.T.);
#423=EDGE_CURVE('',#540,#538,#21,.T.);
#424=EDGE_CURVE('',#541,#540,#22,.T.);
#425=EDGE_CURVE('',#541,#539,#23,.T.);
#426=EDGE_CURVE('',#542,#542,#626,.T.);
#427=EDGE_CURVE('',#543,#543,#627,.T.);
#428=EDGE_CURVE('',#544,#544,#628,.T.);
#429=EDGE_CURVE('',#545,#545,#629,.T.);
#430=EDGE_CURVE('',#546,#546,#630,.T.);
#431=EDGE_CURVE('',#547,#547,#631,.T.);
#432=EDGE_CURVE('',#548,#548,#632,.T.);
#433=EDGE_CURVE('',#549,#549,#633,.T.);
#434=EDGE_CURVE('',#540,#527,#634,.T.);
#435=EDGE_CURVE('',#541,#529,#635,.T.);
#436=EDGE_CURVE('',#550,#550,#636,.F.);
#437=EDGE_CURVE('',#551,#551,#637,.F.);
#438=EDGE_CURVE('',#552,#553,#638,.T.);
#439=EDGE_CURVE('',#554,#552,#24,.T.);
#440=EDGE_CURVE('',#554,#555,#639,.T.);
#441=EDGE_CURVE('',#555,#553,#25,.T.);
#442=EDGE_CURVE('',#556,#552,#26,.T.);
#443=EDGE_CURVE('',#557,#556,#27,.T.);
#444=EDGE_CURVE('',#557,#554,#28,.T.);
#445=EDGE_CURVE('',#556,#558,#640,.T.);
#446=EDGE_CURVE('',#559,#558,#29,.T.);
#447=EDGE_CURVE('',#557,#559,#641,.T.);
#448=EDGE_CURVE('',#558,#560,#30,.T.);
#449=EDGE_CURVE('',#561,#560,#31,.T.);
#450=EDGE_CURVE('',#559,#561,#32,.T.);
#451=EDGE_CURVE('',#560,#562,#642,.T.);
#452=EDGE_CURVE('',#563,#562,#33,.T.);
#453=EDGE_CURVE('',#561,#563,#643,.T.);
#454=EDGE_CURVE('',#562,#564,#34,.T.);
#455=EDGE_CURVE('',#565,#564,#35,.T.);
#456=EDGE_CURVE('',#563,#565,#36,.T.);
#457=EDGE_CURVE('',#566,#564,#644,.T.);
#458=EDGE_CURVE('',#567,#566,#37,.T.);
#459=EDGE_CURVE('',#567,#565,#645,.T.);
#460=EDGE_CURVE('',#568,#566,#38,.T.);
#461=EDGE_CURVE('',#569,#568,#39,.T.);
#462=EDGE_CURVE('',#569,#567,#40,.T.);
#463=EDGE_CURVE('',#570,#568,#646,.T.);
#464=EDGE_CURVE('',#571,#570,#41,.T.);
#465=EDGE_CURVE('',#571,#569,#647,.T.);
#466=EDGE_CURVE('',#572,#572,#648,.T.);
#467=EDGE_CURVE('',#573,#573,#649,.T.);
#468=EDGE_CURVE('',#574,#574,#650,.T.);
#469=EDGE_CURVE('',#575,#575,#651,.T.);
#470=EDGE_CURVE('',#576,#576,#652,.T.);
#471=EDGE_CURVE('',#577,#577,#653,.T.);
#472=EDGE_CURVE('',#578,#578,#654,.T.);
#473=EDGE_CURVE('',#579,#579,#655,.T.);
#474=EDGE_CURVE('',#580,#580,#656,.T.);
#475=EDGE_CURVE('',#581,#581,#657,.T.);
#476=EDGE_CURVE('',#582,#582,#658,.T.);
#477=EDGE_CURVE('',#583,#583,#659,.T.);
#478=EDGE_CURVE('',#584,#584,#660,.T.);
#479=EDGE_CURVE('',#585,#585,#661,.T.);
#480=EDGE_CURVE('',#553,#570,#42,.T.);
#481=EDGE_CURVE('',#555,#571,#43,.T.);
#482=EDGE_CURVE('',#586,#586,#662,.T.);
#483=EDGE_CURVE('',#587,#587,#663,.T.);
#484=EDGE_CURVE('',#588,#588,#664,.F.);
#485=EDGE_CURVE('',#589,#590,#44,.T.);
#486=EDGE_CURVE('',#589,#591,#665,.F.);
#487=EDGE_CURVE('',#592,#591,#45,.T.);
#488=EDGE_CURVE('',#592,#593,#666,.F.);
#489=EDGE_CURVE('',#594,#593,#46,.T.);
#490=EDGE_CURVE('',#594,#595,#667,.F.);
#491=EDGE_CURVE('',#596,#595,#47,.T.);
#492=EDGE_CURVE('',#596,#597,#668,.F.);
#493=EDGE_CURVE('',#598,#597,#48,.T.);
#494=EDGE_CURVE('',#598,#599,#669,.F.);
#495=EDGE_CURVE('',#600,#599,#49,.T.);
#496=EDGE_CURVE('',#600,#590,#670,.F.);
#497=EDGE_CURVE('',#601,#601,#671,.F.);
#498=EDGE_CURVE('',#602,#603,#672,.F.);
#499=EDGE_CURVE('',#602,#604,#50,.T.);
#500=EDGE_CURVE('',#605,#604,#673,.F.);
#501=EDGE_CURVE('',#605,#606,#51,.T.);
#502=EDGE_CURVE('',#607,#606,#674,.F.);
#503=EDGE_CURVE('',#607,#608,#52,.T.);
#504=EDGE_CURVE('',#609,#608,#675,.F.);
#505=EDGE_CURVE('',#609,#610,#53,.T.);
#506=EDGE_CURVE('',#611,#610,#676,.F.);
#507=EDGE_CURVE('',#611,#612,#54,.T.);
#508=EDGE_CURVE('',#613,#612,#677,.F.);
#509=EDGE_CURVE('',#613,#603,#55,.T.);
#510=EDGE_CURVE('',#600,#605,#56,.F.);
#511=EDGE_CURVE('',#606,#599,#57,.T.);
#512=EDGE_CURVE('',#598,#607,#58,.F.);
#513=EDGE_CURVE('',#608,#597,#59,.T.);
#514=EDGE_CURVE('',#596,#609,#60,.F.);
#515=EDGE_CURVE('',#610,#595,#61,.T.);
#516=EDGE_CURVE('',#594,#611,#62,.F.);
#517=EDGE_CURVE('',#612,#593,#63,.T.);
#518=EDGE_CURVE('',#592,#613,#64,.F.);
#519=EDGE_CURVE('',#603,#591,#65,.T.);
#520=EDGE_CURVE('',#589,#602,#66,.F.);
#521=EDGE_CURVE('',#604,#590,#67,.T.);
#522=VERTEX_POINT('',#1460);
#523=VERTEX_POINT('',#1462);
#524=VERTEX_POINT('',#1465);
#525=VERTEX_POINT('',#1468);
#526=VERTEX_POINT('',#1473);
#527=VERTEX_POINT('',#1474);
#528=VERTEX_POINT('',#1476);
#529=VERTEX_POINT('',#1478);
#530=VERTEX_POINT('',#1482);
#531=VERTEX_POINT('',#1484);
#532=VERTEX_POINT('',#1488);
#533=VERTEX_POINT('',#1490);
#534=VERTEX_POINT('',#1494);
#535=VERTEX_POINT('',#1496);
#536=VERTEX_POINT('',#1500);
#537=VERTEX_POINT('',#1502);
#538=VERTEX_POINT('',#1506);
#539=VERTEX_POINT('',#1508);
#540=VERTEX_POINT('',#1512);
#541=VERTEX_POINT('',#1514);
#542=VERTEX_POINT('',#1518);
#543=VERTEX_POINT('',#1520);
#544=VERTEX_POINT('',#1523);
#545=VERTEX_POINT('',#1525);
#546=VERTEX_POINT('',#1528);
#547=VERTEX_POINT('',#1530);
#548=VERTEX_POINT('',#1533);
#549=VERTEX_POINT('',#1535);
#550=VERTEX_POINT('',#1541);
#551=VERTEX_POINT('',#1543);
#552=VERTEX_POINT('',#1549);
#553=VERTEX_POINT('',#1550);
#554=VERTEX_POINT('',#1552);
#555=VERTEX_POINT('',#1554);
#556=VERTEX_POINT('',#1558);
#557=VERTEX_POINT('',#1560);
#558=VERTEX_POINT('',#1564);
#559=VERTEX_POINT('',#1566);
#560=VERTEX_POINT('',#1570);
#561=VERTEX_POINT('',#1572);
#562=VERTEX_POINT('',#1576);
#563=VERTEX_POINT('',#1578);
#564=VERTEX_POINT('',#1582);
#565=VERTEX_POINT('',#1584);
#566=VERTEX_POINT('',#1588);
#567=VERTEX_POINT('',#1590);
#568=VERTEX_POINT('',#1594);
#569=VERTEX_POINT('',#1596);
#570=VERTEX_POINT('',#1600);
#571=VERTEX_POINT('',#1602);
#572=VERTEX_POINT('',#1606);
#573=VERTEX_POINT('',#1608);
#574=VERTEX_POINT('',#1611);
#575=VERTEX_POINT('',#1613);
#576=VERTEX_POINT('',#1616);
#577=VERTEX_POINT('',#1618);
#578=VERTEX_POINT('',#1621);
#579=VERTEX_POINT('',#1623);
#580=VERTEX_POINT('',#1626);
#581=VERTEX_POINT('',#1628);
#582=VERTEX_POINT('',#1631);
#583=VERTEX_POINT('',#1633);
#584=VERTEX_POINT('',#1636);
#585=VERTEX_POINT('',#1638);
#586=VERTEX_POINT('',#1644);
#587=VERTEX_POINT('',#1646);
#588=VERTEX_POINT('',#1652);
#589=VERTEX_POINT('',#1654);
#590=VERTEX_POINT('',#1655);
#591=VERTEX_POINT('',#1657);
#592=VERTEX_POINT('',#1659);
#593=VERTEX_POINT('',#1661);
#594=VERTEX_POINT('',#1663);
#595=VERTEX_POINT('',#1665);
#596=VERTEX_POINT('',#1667);
#597=VERTEX_POINT('',#1669);
#598=VERTEX_POINT('',#1671);
#599=VERTEX_POINT('',#1673);
#600=VERTEX_POINT('',#1675);
#601=VERTEX_POINT('',#1679);
#602=VERTEX_POINT('',#1681);
#603=VERTEX_POINT('',#1682);
#604=VERTEX_POINT('',#1684);
#605=VERTEX_POINT('',#1686);
#606=VERTEX_POINT('',#1688);
#607=VERTEX_POINT('',#1690);
#608=VERTEX_POINT('',#1692);
#609=VERTEX_POINT('',#1694);
#610=VERTEX_POINT('',#1696);
#611=VERTEX_POINT('',#1698);
#612=VERTEX_POINT('',#1700);
#613=VERTEX_POINT('',#1702);
#614=CIRCLE('',#1035,0.0047625);
#615=CIRCLE('',#1036,0.0047625);
#616=CIRCLE('',#1038,0.0025527);
#617=CIRCLE('',#1040,0.0025527);
#618=CIRCLE('',#1045,0.0047625);
#619=CIRCLE('',#1046,0.0047625);
#620=CIRCLE('',#1049,0.0047625);
#621=CIRCLE('',#1050,0.0047625);
#622=CIRCLE('',#1052,0.044608473722152);
#623=CIRCLE('',#1053,0.044608473722152);
#624=CIRCLE('',#1055,0.0047625);
#625=CIRCLE('',#1056,0.0047625);
#626=CIRCLE('',#1059,0.0142875);
#627=CIRCLE('',#1060,0.0142875);
#628=CIRCLE('',#1062,0.0025527);
#629=CIRCLE('',#1063,0.0025527);
#630=CIRCLE('',#1065,0.0025527);
#631=CIRCLE('',#1066,0.0025527);
#632=CIRCLE('',#1068,0.0025527);
#633=CIRCLE('',#1069,0.0025527);
#634=CIRCLE('',#1071,0.0047625);
#635=CIRCLE('',#1072,0.0047625);
#636=CIRCLE('',#1074,0.0025527);
#637=CIRCLE('',#1075,0.0025527);
#638=CIRCLE('',#1080,0.0047625);
#639=CIRCLE('',#1081,0.0047625);
#640=CIRCLE('',#1084,0.0047625);
#641=CIRCLE('',#1085,0.0047625);
#642=CIRCLE('',#1088,0.0047625);
#643=CIRCLE('',#1089,0.0047625);
#644=CIRCLE('',#1092,0.03175);
#645=CIRCLE('',#1093,0.03175);
#646=CIRCLE('',#1096,0.0047625);
#647=CIRCLE('',#1097,0.0047625);
#648=CIRCLE('',#1099,0.0025527);
#649=CIRCLE('',#1100,0.0025527);
#650=CIRCLE('',#1102,0.0025527);
#651=CIRCLE('',#1103,0.0025527);
#652=CIRCLE('',#1105,0.0025527);
#653=CIRCLE('',#1106,0.0025527);
#654=CIRCLE('',#1108,0.0025527);
#655=CIRCLE('',#1109,0.0025527);
#656=CIRCLE('',#1111,0.0025527);
#657=CIRCLE('',#1112,0.0025527);
#658=CIRCLE('',#1114,0.015875);
#659=CIRCLE('',#1115,0.015875);
#660=CIRCLE('',#1117,0.0142875);
#661=CIRCLE('',#1118,0.0142875);
#662=CIRCLE('',#1121,0.0025527);
#663=CIRCLE('',#1122,0.0025527);
#664=CIRCLE('',#1127,0.0020193);
#665=CIRCLE('',#1128,0.006875);
#666=CIRCLE('',#1129,0.006875);
#667=CIRCLE('',#1130,0.006875);
#668=CIRCLE('',#1131,0.006875);
#669=CIRCLE('',#1132,0.006875);
#670=CIRCLE('',#1133,0.006875);
#671=CIRCLE('',#1135,0.0020193);
#672=CIRCLE('',#1136,0.006875);
#673=CIRCLE('',#1137,0.006875);
#674=CIRCLE('',#1138,0.006875);
#675=CIRCLE('',#1139,0.006875);
#676=CIRCLE('',#1140,0.006875);
#677=CIRCLE('',#1141,0.006875);
#678=EDGE_LOOP('',(#156));
#679=EDGE_LOOP('',(#157));
#680=EDGE_LOOP('',(#158));
#681=EDGE_LOOP('',(#159));
#682=EDGE_LOOP('',(#160));
#683=EDGE_LOOP('',(#161));
#684=EDGE_LOOP('',(#162));
#685=EDGE_LOOP('',(#163));
#686=EDGE_LOOP('',(#164,#165,#166,#167));
#687=EDGE_LOOP('',(#168,#169,#170,#171));
#688=EDGE_LOOP('',(#172,#173,#174,#175));
#689=EDGE_LOOP('',(#176,#177,#178,#179));
#690=EDGE_LOOP('',(#180,#181,#182,#183));
#691=EDGE_LOOP('',(#184,#185,#186,#187));
#692=EDGE_LOOP('',(#188,#189,#190,#191));
#693=EDGE_LOOP('',(#192));
#694=EDGE_LOOP('',(#193));
#695=EDGE_LOOP('',(#194));
#696=EDGE_LOOP('',(#195));
#697=EDGE_LOOP('',(#196));
#698=EDGE_LOOP('',(#197));
#699=EDGE_LOOP('',(#198));
#700=EDGE_LOOP('',(#199));
#701=EDGE_LOOP('',(#200,#201,#202,#203));
#702=EDGE_LOOP('',(#204));
#703=EDGE_LOOP('',(#205));
#704=EDGE_LOOP('',(#206,#207,#208,#209,#210,#211,#212,#213));
#705=EDGE_LOOP('',(#214));
#706=EDGE_LOOP('',(#215));
#707=EDGE_LOOP('',(#216));
#708=EDGE_LOOP('',(#217));
#709=EDGE_LOOP('',(#218));
#710=EDGE_LOOP('',(#219,#220,#221,#222,#223,#224,#225,#226));
#711=EDGE_LOOP('',(#227));
#712=EDGE_LOOP('',(#228));
#713=EDGE_LOOP('',(#229));
#714=EDGE_LOOP('',(#230));
#715=EDGE_LOOP('',(#231));
#716=EDGE_LOOP('',(#232,#233,#234,#235));
#717=EDGE_LOOP('',(#236,#237,#238,#239));
#718=EDGE_LOOP('',(#240,#241,#242,#243));
#719=EDGE_LOOP('',(#244,#245,#246,#247));
#720=EDGE_LOOP('',(#248,#249,#250,#251));
#721=EDGE_LOOP('',(#252,#253,#254,#255));
#722=EDGE_LOOP('',(#256,#257,#258,#259));
#723=EDGE_LOOP('',(#260,#261,#262,#263));
#724=EDGE_LOOP('',(#264,#265,#266,#267));
#725=EDGE_LOOP('',(#268));
#726=EDGE_LOOP('',(#269));
#727=EDGE_LOOP('',(#270));
#728=EDGE_LOOP('',(#271));
#729=EDGE_LOOP('',(#272));
#730=EDGE_LOOP('',(#273));
#731=EDGE_LOOP('',(#274));
#732=EDGE_LOOP('',(#275));
#733=EDGE_LOOP('',(#276));
#734=EDGE_LOOP('',(#277));
#735=EDGE_LOOP('',(#278));
#736=EDGE_LOOP('',(#279));
#737=EDGE_LOOP('',(#280));
#738=EDGE_LOOP('',(#281));
#739=EDGE_LOOP('',(#282,#283,#284,#285));
#740=EDGE_LOOP('',(#286));
#741=EDGE_LOOP('',(#287));
#742=EDGE_LOOP('',(#288,#289,#290,#291,#292,#293,#294,#295,#296,#297));
#743=EDGE_LOOP('',(#298));
#744=EDGE_LOOP('',(#299));
#745=EDGE_LOOP('',(#300));
#746=EDGE_LOOP('',(#301));
#747=EDGE_LOOP('',(#302));
#748=EDGE_LOOP('',(#303));
#749=EDGE_LOOP('',(#304));
#750=EDGE_LOOP('',(#305));
#751=EDGE_LOOP('',(#306,#307,#308,#309,#310,#311,#312,#313,#314,#315));
#752=EDGE_LOOP('',(#316));
#753=EDGE_LOOP('',(#317));
#754=EDGE_LOOP('',(#318));
#755=EDGE_LOOP('',(#319));
#756=EDGE_LOOP('',(#320));
#757=EDGE_LOOP('',(#321));
#758=EDGE_LOOP('',(#322));
#759=EDGE_LOOP('',(#323));
#760=EDGE_LOOP('',(#324));
#761=EDGE_LOOP('',(#325,#326,#327,#328,#329,#330,#331,#332,#333,#334,#335,
#336));
#762=EDGE_LOOP('',(#337));
#763=EDGE_LOOP('',(#338,#339,#340,#341,#342,#343,#344,#345,#346,#347,#348,
#349));
#764=EDGE_LOOP('',(#350,#351,#352,#353));
#765=EDGE_LOOP('',(#354,#355,#356,#357));
#766=EDGE_LOOP('',(#358,#359,#360,#361));
#767=EDGE_LOOP('',(#362,#363,#364,#365));
#768=EDGE_LOOP('',(#366,#367,#368,#369));
#769=EDGE_LOOP('',(#370,#371,#372,#373));
#770=EDGE_LOOP('',(#374));
#771=EDGE_LOOP('',(#375));
#772=EDGE_LOOP('',(#376,#377,#378,#379));
#773=EDGE_LOOP('',(#380,#381,#382,#383));
#774=EDGE_LOOP('',(#384,#385,#386,#387));
#775=EDGE_LOOP('',(#388,#389,#390,#391));
#776=EDGE_LOOP('',(#392,#393,#394,#395));
#777=EDGE_LOOP('',(#396,#397,#398,#399));
#778=FACE_BOUND('',#678,.T.);
#779=FACE_BOUND('',#679,.T.);
#780=FACE_BOUND('',#680,.T.);
#781=FACE_BOUND('',#681,.T.);
#782=FACE_BOUND('',#682,.T.);
#783=FACE_BOUND('',#683,.T.);
#784=FACE_BOUND('',#684,.T.);
#785=FACE_BOUND('',#685,.T.);
#786=FACE_BOUND('',#686,.T.);
#787=FACE_BOUND('',#687,.T.);
#788=FACE_BOUND('',#688,.T.);
#789=FACE_BOUND('',#689,.T.);
#790=FACE_BOUND('',#690,.T.);
#791=FACE_BOUND('',#691,.T.);
#792=FACE_BOUND('',#692,.T.);
#793=FACE_BOUND('',#693,.T.);
#794=FACE_BOUND('',#694,.T.);
#795=FACE_BOUND('',#695,.T.);
#796=FACE_BOUND('',#696,.T.);
#797=FACE_BOUND('',#697,.T.);
#798=FACE_BOUND('',#698,.T.);
#799=FACE_BOUND('',#699,.T.);
#800=FACE_BOUND('',#700,.T.);
#801=FACE_BOUND('',#701,.T.);
#802=FACE_BOUND('',#702,.T.);
#803=FACE_BOUND('',#703,.T.);
#804=FACE_BOUND('',#704,.T.);
#805=FACE_BOUND('',#705,.T.);
#806=FACE_BOUND('',#706,.T.);
#807=FACE_BOUND('',#707,.T.);
#808=FACE_BOUND('',#708,.T.);
#809=FACE_BOUND('',#709,.T.);
#810=FACE_BOUND('',#710,.T.);
#811=FACE_BOUND('',#711,.T.);
#812=FACE_BOUND('',#712,.T.);
#813=FACE_BOUND('',#713,.T.);
#814=FACE_BOUND('',#714,.T.);
#815=FACE_BOUND('',#715,.T.);
#816=FACE_BOUND('',#716,.T.);
#817=FACE_BOUND('',#717,.T.);
#818=FACE_BOUND('',#718,.T.);
#819=FACE_BOUND('',#719,.T.);
#820=FACE_BOUND('',#720,.T.);
#821=FACE_BOUND('',#721,.T.);
#822=FACE_BOUND('',#722,.T.);
#823=FACE_BOUND('',#723,.T.);
#824=FACE_BOUND('',#724,.T.);
#825=FACE_BOUND('',#725,.T.);
#826=FACE_BOUND('',#726,.T.);
#827=FACE_BOUND('',#727,.T.);
#828=FACE_BOUND('',#728,.T.);
#829=FACE_BOUND('',#729,.T.);
#830=FACE_BOUND('',#730,.T.);
#831=FACE_BOUND('',#731,.T.);
#832=FACE_BOUND('',#732,.T.);
#833=FACE_BOUND('',#733,.T.);
#834=FACE_BOUND('',#734,.T.);
#835=FACE_BOUND('',#735,.T.);
#836=FACE_BOUND('',#736,.T.);
#837=FACE_BOUND('',#737,.T.);
#838=FACE_BOUND('',#738,.T.);
#839=FACE_BOUND('',#739,.T.);
#840=FACE_BOUND('',#740,.T.);
#841=FACE_BOUND('',#741,.T.);
#842=FACE_BOUND('',#742,.T.);
#843=FACE_BOUND('',#743,.T.);
#844=FACE_BOUND('',#744,.T.);
#845=FACE_BOUND('',#745,.T.);
#846=FACE_BOUND('',#746,.T.);
#847=FACE_BOUND('',#747,.T.);
#848=FACE_BOUND('',#748,.T.);
#849=FACE_BOUND('',#749,.T.);
#850=FACE_BOUND('',#750,.T.);
#851=FACE_BOUND('',#751,.T.);
#852=FACE_BOUND('',#752,.T.);
#853=FACE_BOUND('',#753,.T.);
#854=FACE_BOUND('',#754,.T.);
#855=FACE_BOUND('',#755,.T.);
#856=FACE_BOUND('',#756,.T.);
#857=FACE_BOUND('',#757,.T.);
#858=FACE_BOUND('',#758,.T.);
#859=FACE_BOUND('',#759,.T.);
#860=FACE_BOUND('',#760,.T.);
#861=FACE_BOUND('',#761,.T.);
#862=FACE_BOUND('',#762,.T.);
#863=FACE_BOUND('',#763,.T.);
#864=FACE_BOUND('',#764,.T.);
#865=FACE_BOUND('',#765,.T.);
#866=FACE_BOUND('',#766,.T.);
#867=FACE_BOUND('',#767,.T.);
#868=FACE_BOUND('',#768,.T.);
#869=FACE_BOUND('',#769,.T.);
#870=FACE_BOUND('',#770,.T.);
#871=FACE_BOUND('',#771,.T.);
#872=FACE_BOUND('',#772,.T.);
#873=FACE_BOUND('',#773,.T.);
#874=FACE_BOUND('',#774,.T.);
#875=FACE_BOUND('',#775,.T.);
#876=FACE_BOUND('',#776,.T.);
#877=FACE_BOUND('',#777,.T.);
#878=CYLINDRICAL_SURFACE('',#1034,0.0047625);
#879=CYLINDRICAL_SURFACE('',#1041,0.0025527);
#880=CYLINDRICAL_SURFACE('',#1044,0.0047625);
#881=CYLINDRICAL_SURFACE('',#1048,0.0047625);
#882=CYLINDRICAL_SURFACE('',#1051,0.044608473722152);
#883=CYLINDRICAL_SURFACE('',#1054,0.0047625);
#884=CYLINDRICAL_SURFACE('',#1058,0.0142875);
#885=CYLINDRICAL_SURFACE('',#1061,0.0025527);
#886=CYLINDRICAL_SURFACE('',#1064,0.0025527);
#887=CYLINDRICAL_SURFACE('',#1067,0.0025527);
#888=CYLINDRICAL_SURFACE('',#1070,0.0047625);
#889=CYLINDRICAL_SURFACE('',#1073,0.0025527);
#890=CYLINDRICAL_SURFACE('',#1079,0.0047625);
#891=CYLINDRICAL_SURFACE('',#1083,0.0047625);
#892=CYLINDRICAL_SURFACE('',#1087,0.0047625);
#893=CYLINDRICAL_SURFACE('',#1091,0.03175);
#894=CYLINDRICAL_SURFACE('',#1095,0.0047625);
#895=CYLINDRICAL_SURFACE('',#1098,0.0025527);
#896=CYLINDRICAL_SURFACE('',#1101,0.0025527);
#897=CYLINDRICAL_SURFACE('',#1104,0.0025527);
#898=CYLINDRICAL_SURFACE('',#1107,0.0025527);
#899=CYLINDRICAL_SURFACE('',#1110,0.0025527);
#900=CYLINDRICAL_SURFACE('',#1113,0.015875);
#901=CYLINDRICAL_SURFACE('',#1116,0.0142875);
#902=CYLINDRICAL_SURFACE('',#1120,0.0025527);
#903=CYLINDRICAL_SURFACE('',#1148,0.0020193);
#904=CYLINDRICAL_SURFACE('',#1149,0.006875);
#905=CYLINDRICAL_SURFACE('',#1150,0.006875);
#906=CYLINDRICAL_SURFACE('',#1151,0.006875);
#907=CYLINDRICAL_SURFACE('',#1152,0.006875);
#908=CYLINDRICAL_SURFACE('',#1153,0.006875);
#909=CYLINDRICAL_SURFACE('',#1154,0.006875);
#910=OVER_RIDING_STYLED_ITEM('',(#976),#913,#971);
#911=OVER_RIDING_STYLED_ITEM('',(#977),#914,#971);
#912=OVER_RIDING_STYLED_ITEM('',(#978),#916,#971);
#913=ADVANCED_FACE('Face appearance 1',(#778,#779),#878,.T.);
#914=ADVANCED_FACE('Face appearance 1',(#780,#781),#134,.T.);
#915=ADVANCED_FACE('',(#782,#783),#135,.F.);
#916=ADVANCED_FACE('Face appearance 1',(#784,#785),#879,.F.);
#917=ADVANCED_FACE('',(#786),#136,.T.);
#918=ADVANCED_FACE('',(#787),#880,.T.);
#919=ADVANCED_FACE('',(#788),#137,.F.);
#920=ADVANCED_FACE('',(#789),#881,.T.);
#921=ADVANCED_FACE('',(#790),#882,.F.);
#922=ADVANCED_FACE('',(#791),#883,.T.);
#923=ADVANCED_FACE('',(#792),#138,.T.);
#924=ADVANCED_FACE('',(#793,#794),#884,.F.);
#925=ADVANCED_FACE('',(#795,#796),#885,.F.);
#926=ADVANCED_FACE('',(#797,#798),#886,.F.);
#927=ADVANCED_FACE('',(#799,#800),#887,.F.);
#928=ADVANCED_FACE('',(#801),#888,.T.);
#929=ADVANCED_FACE('',(#802,#803),#889,.F.);
#930=ADVANCED_FACE('',(#804,#805,#806,#807,#808,#809),#139,.T.);
#931=ADVANCED_FACE('',(#810,#811,#812,#813,#814,#815),#140,.F.);
#932=ADVANCED_FACE('',(#816),#890,.T.);
#933=ADVANCED_FACE('',(#817),#141,.T.);
#934=ADVANCED_FACE('',(#818),#891,.T.);
#935=ADVANCED_FACE('',(#819),#142,.F.);
#936=ADVANCED_FACE('',(#820),#892,.T.);
#937=ADVANCED_FACE('',(#821),#143,.F.);
#938=ADVANCED_FACE('',(#822),#893,.T.);
#939=ADVANCED_FACE('',(#823),#144,.T.);
#940=ADVANCED_FACE('',(#824),#894,.T.);
#941=ADVANCED_FACE('',(#825,#826),#895,.F.);
#942=ADVANCED_FACE('',(#827,#828),#896,.F.);
#943=ADVANCED_FACE('',(#829,#830),#897,.F.);
#944=ADVANCED_FACE('',(#831,#832),#898,.F.);
#945=ADVANCED_FACE('',(#833,#834),#899,.F.);
#946=ADVANCED_FACE('',(#835,#836),#900,.F.);
#947=ADVANCED_FACE('',(#837,#838),#901,.F.);
#948=ADVANCED_FACE('',(#839),#145,.T.);
#949=ADVANCED_FACE('',(#840,#841),#902,.F.);
#950=ADVANCED_FACE('',(#842,#843,#844,#845,#846,#847,#848,#849,#850),#146,
 .T.);
#951=ADVANCED_FACE('',(#851,#852,#853,#854,#855,#856,#857,#858,#859),#147,
 .F.);
#952=ADVANCED_FACE('',(#860,#861),#148,.F.);
#953=ADVANCED_FACE('',(#862,#863),#149,.T.);
#954=ADVANCED_FACE('',(#864),#150,.T.);
#955=ADVANCED_FACE('',(#865),#151,.T.);
#956=ADVANCED_FACE('',(#866),#152,.T.);
#957=ADVANCED_FACE('',(#867),#153,.T.);
#958=ADVANCED_FACE('',(#868),#154,.T.);
#959=ADVANCED_FACE('',(#869),#155,.T.);
#960=ADVANCED_FACE('',(#870,#871),#903,.F.);
#961=ADVANCED_FACE('',(#872),#904,.T.);
#962=ADVANCED_FACE('',(#873),#905,.T.);
#963=ADVANCED_FACE('',(#874),#906,.T.);
#964=ADVANCED_FACE('',(#875),#907,.T.);
#965=ADVANCED_FACE('',(#876),#908,.T.);
#966=ADVANCED_FACE('',(#877),#909,.T.);
#967=CLOSED_SHELL('',(#913,#914,#915,#916));
#968=CLOSED_SHELL('',(#917,#918,#919,#920,#921,#922,#923,#924,#925,#926,
#927,#928,#929,#930,#931));
#969=CLOSED_SHELL('',(#932,#933,#934,#935,#936,#937,#938,#939,#940,#941,
#942,#943,#944,#945,#946,#947,#948,#949,#950,#951));
#970=CLOSED_SHELL('',(#952,#953,#954,#955,#956,#957,#958,#959,#960,#961,
#962,#963,#964,#965,#966));
#971=STYLED_ITEM('',(#975),#1021);
#972=STYLED_ITEM('',(#979),#1022);
#973=STYLED_ITEM('',(#980),#1023);
#974=STYLED_ITEM('',(#981),#1024);
#975=PRESENTATION_STYLE_ASSIGNMENT((#982));
#976=PRESENTATION_STYLE_ASSIGNMENT((#983));
#977=PRESENTATION_STYLE_ASSIGNMENT((#984));
#978=PRESENTATION_STYLE_ASSIGNMENT((#985));
#979=PRESENTATION_STYLE_ASSIGNMENT((#986));
#980=PRESENTATION_STYLE_ASSIGNMENT((#987));
#981=PRESENTATION_STYLE_ASSIGNMENT((#988));
#982=SURFACE_STYLE_USAGE(.BOTH.,#989);
#983=SURFACE_STYLE_USAGE(.BOTH.,#990);
#984=SURFACE_STYLE_USAGE(.BOTH.,#991);
#985=SURFACE_STYLE_USAGE(.BOTH.,#992);
#986=SURFACE_STYLE_USAGE(.BOTH.,#993);
#987=SURFACE_STYLE_USAGE(.BOTH.,#994);
#988=SURFACE_STYLE_USAGE(.BOTH.,#995);
#989=SURFACE_SIDE_STYLE('',(#996));
#990=SURFACE_SIDE_STYLE('',(#997));
#991=SURFACE_SIDE_STYLE('',(#998));
#992=SURFACE_SIDE_STYLE('',(#999));
#993=SURFACE_SIDE_STYLE('',(#1000));
#994=SURFACE_SIDE_STYLE('',(#1001));
#995=SURFACE_SIDE_STYLE('',(#1002));
#996=SURFACE_STYLE_FILL_AREA(#1003);
#997=SURFACE_STYLE_FILL_AREA(#1004);
#998=SURFACE_STYLE_FILL_AREA(#1005);
#999=SURFACE_STYLE_FILL_AREA(#1006);
#1000=SURFACE_STYLE_FILL_AREA(#1007);
#1001=SURFACE_STYLE_FILL_AREA(#1008);
#1002=SURFACE_STYLE_FILL_AREA(#1009);
#1003=FILL_AREA_STYLE('',(#1010));
#1004=FILL_AREA_STYLE('',(#1011));
#1005=FILL_AREA_STYLE('',(#1012));
#1006=FILL_AREA_STYLE('',(#1013));
#1007=FILL_AREA_STYLE('',(#1014));
#1008=FILL_AREA_STYLE('',(#1015));
#1009=FILL_AREA_STYLE('',(#1016));
#1010=FILL_AREA_STYLE_COLOUR('',#1017);
#1011=FILL_AREA_STYLE_COLOUR('',#1018);
#1012=FILL_AREA_STYLE_COLOUR('',#1018);
#1013=FILL_AREA_STYLE_COLOUR('',#1018);
#1014=FILL_AREA_STYLE_COLOUR('',#1019);
#1015=FILL_AREA_STYLE_COLOUR('',#1020);
#1016=FILL_AREA_STYLE_COLOUR('',#1017);
#1017=COLOUR_RGB('',0.298039215686275,0.298039215686275,0.298039215686275);
#1018=COLOUR_RGB('',0.866666666666667,0.32156862745098,0.156862745098039);
#1019=COLOUR_RGB('',0.231372549019608,0.380392156862745,0.705882352941177);
#1020=COLOUR_RGB('',0.615686274509804,0.811764705882353,0.929411764705882);
#1021=MANIFOLD_SOLID_BREP('0.75 in. Round Spacer',#967);
#1022=MANIFOLD_SOLID_BREP('Part 3',#968);
#1023=MANIFOLD_SOLID_BREP('Part 1',#969);
#1024=MANIFOLD_SOLID_BREP('4 in. Rounded Hex Shaft',#970);
#1025=SHAPE_DEFINITION_REPRESENTATION(#1753,#1029);
#1026=SHAPE_DEFINITION_REPRESENTATION(#1754,#1030);
#1027=SHAPE_DEFINITION_REPRESENTATION(#1755,#1031);
#1028=SHAPE_DEFINITION_REPRESENTATION(#1756,#1032);
#1029=SHAPE_REPRESENTATION('0.75 in. Round Spacer',(#1033),#1733);
#1030=SHAPE_REPRESENTATION('Part 3',(#1042),#1734);
#1031=SHAPE_REPRESENTATION('Part 1',(#1078),#1735);
#1032=SHAPE_REPRESENTATION('4 in. Rounded Hex Shaft',(#1125),#1736);
#1033=AXIS2_PLACEMENT_3D('',#1457,#1155,#1156);
#1034=AXIS2_PLACEMENT_3D('',#1458,#1157,#1158);
#1035=AXIS2_PLACEMENT_3D('',#1459,#1159,#1160);
#1036=AXIS2_PLACEMENT_3D('',#1461,#1161,#1162);
#1037=AXIS2_PLACEMENT_3D('',#1463,#1163,#1164);
#1038=AXIS2_PLACEMENT_3D('',#1464,#1165,#1166);
#1039=AXIS2_PLACEMENT_3D('',#1466,#1167,#1168);
#1040=AXIS2_PLACEMENT_3D('',#1467,#1169,#1170);
#1041=AXIS2_PLACEMENT_3D('',#1469,#1171,#1172);
#1042=AXIS2_PLACEMENT_3D('',#1470,#1173,#1174);
#1043=AXIS2_PLACEMENT_3D('',#1471,#1175,#1176);
#1044=AXIS2_PLACEMENT_3D('',#1480,#1181,#1182);
#1045=AXIS2_PLACEMENT_3D('',#1481,#1183,#1184);
#1046=AXIS2_PLACEMENT_3D('',#1485,#1186,#1187);
#1047=AXIS2_PLACEMENT_3D('',#1486,#1188,#1189);
#1048=AXIS2_PLACEMENT_3D('',#1492,#1193,#1194);
#1049=AXIS2_PLACEMENT_3D('',#1493,#1195,#1196);
#1050=AXIS2_PLACEMENT_3D('',#1497,#1198,#1199);
#1051=AXIS2_PLACEMENT_3D('',#1498,#1200,#1201);
#1052=AXIS2_PLACEMENT_3D('',#1499,#1202,#1203);
#1053=AXIS2_PLACEMENT_3D('',#1503,#1205,#1206);
#1054=AXIS2_PLACEMENT_3D('',#1504,#1207,#1208);
#1055=AXIS2_PLACEMENT_3D('',#1505,#1209,#1210);
#1056=AXIS2_PLACEMENT_3D('',#1509,#1212,#1213);
#1057=AXIS2_PLACEMENT_3D('',#1510,#1214,#1215);
#1058=AXIS2_PLACEMENT_3D('',#1516,#1219,#1220);
#1059=AXIS2_PLACEMENT_3D('',#1517,#1221,#1222);
#1060=AXIS2_PLACEMENT_3D('',#1519,#1223,#1224);
#1061=AXIS2_PLACEMENT_3D('',#1521,#1225,#1226);
#1062=AXIS2_PLACEMENT_3D('',#1522,#1227,#1228);
#1063=AXIS2_PLACEMENT_3D('',#1524,#1229,#1230);
#1064=AXIS2_PLACEMENT_3D('',#1526,#1231,#1232);
#1065=AXIS2_PLACEMENT_3D('',#1527,#1233,#1234);
#1066=AXIS2_PLACEMENT_3D('',#1529,#1235,#1236);
#1067=AXIS2_PLACEMENT_3D('',#1531,#1237,#1238);
#1068=AXIS2_PLACEMENT_3D('',#1532,#1239,#1240);
#1069=AXIS2_PLACEMENT_3D('',#1534,#1241,#1242);
#1070=AXIS2_PLACEMENT_3D('',#1536,#1243,#1244);
#1071=AXIS2_PLACEMENT_3D('',#1537,#1245,#1246);
#1072=AXIS2_PLACEMENT_3D('',#1538,#1247,#1248);
#1073=AXIS2_PLACEMENT_3D('',#1539,#1249,#1250);
#1074=AXIS2_PLACEMENT_3D('',#1540,#1251,#1252);
#1075=AXIS2_PLACEMENT_3D('',#1542,#1253,#1254);
#1076=AXIS2_PLACEMENT_3D('',#1544,#1255,#1256);
#1077=AXIS2_PLACEMENT_3D('',#1545,#1257,#1258);
#1078=AXIS2_PLACEMENT_3D('',#1546,#1259,#1260);
#1079=AXIS2_PLACEMENT_3D('',#1547,#1261,#1262);
#1080=AXIS2_PLACEMENT_3D('',#1548,#1263,#1264);
#1081=AXIS2_PLACEMENT_3D('',#1553,#1266,#1267);
#1082=AXIS2_PLACEMENT_3D('',#1556,#1269,#1270);
#1083=AXIS2_PLACEMENT_3D('',#1562,#1274,#1275);
#1084=AXIS2_PLACEMENT_3D('',#1563,#1276,#1277);
#1085=AXIS2_PLACEMENT_3D('',#1567,#1279,#1280);
#1086=AXIS2_PLACEMENT_3D('',#1568,#1281,#1282);
#1087=AXIS2_PLACEMENT_3D('',#1574,#1286,#1287);
#1088=AXIS2_PLACEMENT_3D('',#1575,#1288,#1289);
#1089=AXIS2_PLACEMENT_3D('',#1579,#1291,#1292);
#1090=AXIS2_PLACEMENT_3D('',#1580,#1293,#1294);
#1091=AXIS2_PLACEMENT_3D('',#1586,#1298,#1299);
#1092=AXIS2_PLACEMENT_3D('',#1587,#1300,#1301);
#1093=AXIS2_PLACEMENT_3D('',#1591,#1303,#1304);
#1094=AXIS2_PLACEMENT_3D('',#1592,#1305,#1306);
#1095=AXIS2_PLACEMENT_3D('',#1598,#1310,#1311);
#1096=AXIS2_PLACEMENT_3D('',#1599,#1312,#1313);
#1097=AXIS2_PLACEMENT_3D('',#1603,#1315,#1316);
#1098=AXIS2_PLACEMENT_3D('',#1604,#1317,#1318);
#1099=AXIS2_PLACEMENT_3D('',#1605,#1319,#1320);
#1100=AXIS2_PLACEMENT_3D('',#1607,#1321,#1322);
#1101=AXIS2_PLACEMENT_3D('',#1609,#1323,#1324);
#1102=AXIS2_PLACEMENT_3D('',#1610,#1325,#1326);
#1103=AXIS2_PLACEMENT_3D('',#1612,#1327,#1328);
#1104=AXIS2_PLACEMENT_3D('',#1614,#1329,#1330);
#1105=AXIS2_PLACEMENT_3D('',#1615,#1331,#1332);
#1106=AXIS2_PLACEMENT_3D('',#1617,#1333,#1334);
#1107=AXIS2_PLACEMENT_3D('',#1619,#1335,#1336);
#1108=AXIS2_PLACEMENT_3D('',#1620,#1337,#1338);
#1109=AXIS2_PLACEMENT_3D('',#1622,#1339,#1340);
#1110=AXIS2_PLACEMENT_3D('',#1624,#1341,#1342);
#1111=AXIS2_PLACEMENT_3D('',#1625,#1343,#1344);
#1112=AXIS2_PLACEMENT_3D('',#1627,#1345,#1346);
#1113=AXIS2_PLACEMENT_3D('',#1629,#1347,#1348);
#1114=AXIS2_PLACEMENT_3D('',#1630,#1349,#1350);
#1115=AXIS2_PLACEMENT_3D('',#1632,#1351,#1352);
#1116=AXIS2_PLACEMENT_3D('',#1634,#1353,#1354);
#1117=AXIS2_PLACEMENT_3D('',#1635,#1355,#1356);
#1118=AXIS2_PLACEMENT_3D('',#1637,#1357,#1358);
#1119=AXIS2_PLACEMENT_3D('',#1639,#1359,#1360);
#1120=AXIS2_PLACEMENT_3D('',#1642,#1363,#1364);
#1121=AXIS2_PLACEMENT_3D('',#1643,#1365,#1366);
#1122=AXIS2_PLACEMENT_3D('',#1645,#1367,#1368);
#1123=AXIS2_PLACEMENT_3D('',#1647,#1369,#1370);
#1124=AXIS2_PLACEMENT_3D('',#1648,#1371,#1372);
#1125=AXIS2_PLACEMENT_3D('',#1649,#1373,#1374);
#1126=AXIS2_PLACEMENT_3D('',#1650,#1375,#1376);
#1127=AXIS2_PLACEMENT_3D('',#1651,#1377,#1378);
#1128=AXIS2_PLACEMENT_3D('',#1656,#1380,#1381);
#1129=AXIS2_PLACEMENT_3D('',#1660,#1383,#1384);
#1130=AXIS2_PLACEMENT_3D('',#1664,#1386,#1387);
#1131=AXIS2_PLACEMENT_3D('',#1668,#1389,#1390);
#1132=AXIS2_PLACEMENT_3D('',#1672,#1392,#1393);
#1133=AXIS2_PLACEMENT_3D('',#1676,#1395,#1396);
#1134=AXIS2_PLACEMENT_3D('',#1677,#1397,#1398);
#1135=AXIS2_PLACEMENT_3D('',#1678,#1399,#1400);
#1136=AXIS2_PLACEMENT_3D('',#1680,#1401,#1402);
#1137=AXIS2_PLACEMENT_3D('',#1685,#1404,#1405);
#1138=AXIS2_PLACEMENT_3D('',#1689,#1407,#1408);
#1139=AXIS2_PLACEMENT_3D('',#1693,#1410,#1411);
#1140=AXIS2_PLACEMENT_3D('',#1697,#1413,#1414);
#1141=AXIS2_PLACEMENT_3D('',#1701,#1416,#1417);
#1142=AXIS2_PLACEMENT_3D('',#1704,#1419,#1420);
#1143=AXIS2_PLACEMENT_3D('',#1707,#1423,#1424);
#1144=AXIS2_PLACEMENT_3D('',#1710,#1427,#1428);
#1145=AXIS2_PLACEMENT_3D('',#1713,#1431,#1432);
#1146=AXIS2_PLACEMENT_3D('',#1716,#1435,#1436);
#1147=AXIS2_PLACEMENT_3D('',#1719,#1439,#1440);
#1148=AXIS2_PLACEMENT_3D('',#1722,#1443,#1444);
#1149=AXIS2_PLACEMENT_3D('',#1723,#1445,#1446);
#1150=AXIS2_PLACEMENT_3D('',#1724,#1447,#1448);
#1151=AXIS2_PLACEMENT_3D('',#1725,#1449,#1450);
#1152=AXIS2_PLACEMENT_3D('',#1726,#1451,#1452);
#1153=AXIS2_PLACEMENT_3D('',#1727,#1453,#1454);
#1154=AXIS2_PLACEMENT_3D('',#1728,#1455,#1456);
#1155=DIRECTION('',(0.,0.,1.));
#1156=DIRECTION('',(1.,0.,0.));
#1157=DIRECTION('',(0.,1.,0.));
#1158=DIRECTION('',(0.,0.,1.));
#1159=DIRECTION('',(0.,-1.,0.));
#1160=DIRECTION('',(0.,0.,-1.));
#1161=DIRECTION('',(0.,-1.,0.));
#1162=DIRECTION('',(0.,0.,-1.));
#1163=DIRECTION('',(0.,-1.,0.));
#1164=DIRECTION('',(1.,0.,0.));
#1165=DIRECTION('',(0.,-1.,0.));
#1166=DIRECTION('',(0.,0.,-1.));
#1167=DIRECTION('',(0.,-1.,0.));
#1168=DIRECTION('',(1.,0.,0.));
#1169=DIRECTION('',(0.,-1.,0.));
#1170=DIRECTION('',(0.,0.,-1.));
#1171=DIRECTION('',(0.,1.,0.));
#1172=DIRECTION('',(0.,0.,1.));
#1173=DIRECTION('',(0.,0.,1.));
#1174=DIRECTION('',(1.,0.,0.));
#1175=DIRECTION('',(0.,0.,-1.));
#1176=DIRECTION('',(-1.,0.,0.));
#1177=DIRECTION('',(-1.,0.,0.));
#1178=DIRECTION('',(0.,1.,0.));
#1179=DIRECTION('',(-1.,0.,0.));
#1180=DIRECTION('',(0.,1.,0.));
#1181=DIRECTION('',(0.,1.,0.));
#1182=DIRECTION('',(0.,0.,1.));
#1183=DIRECTION('',(0.,-1.,0.));
#1184=DIRECTION('',(-2.91397119324188E-15,0.,-1.));
#1185=DIRECTION('',(0.,1.,0.));
#1186=DIRECTION('',(0.,-1.,0.));
#1187=DIRECTION('',(-2.91397119324188E-15,0.,-1.));
#1188=DIRECTION('',(-1.,0.,0.));
#1189=DIRECTION('',(0.,0.,1.));
#1190=DIRECTION('',(0.,0.,1.));
#1191=DIRECTION('',(0.,1.,0.));
#1192=DIRECTION('',(0.,0.,1.));
#1193=DIRECTION('',(0.,1.,0.));
#1194=DIRECTION('',(0.,0.,1.));
#1195=DIRECTION('',(0.,-1.,0.));
#1196=DIRECTION('',(1.,0.,-2.91397119324188E-15));
#1197=DIRECTION('',(0.,1.,0.));
#1198=DIRECTION('',(0.,-1.,0.));
#1199=DIRECTION('',(1.,0.,-2.91397119324188E-15));
#1200=DIRECTION('',(0.,1.,0.));
#1201=DIRECTION('',(0.,0.,1.));
#1202=DIRECTION('',(0.,-1.,0.));
#1203=DIRECTION('',(-0.836017540028393,-7.77755135394988E-17,-0.548702718022131));
#1204=DIRECTION('',(0.,1.,0.));
#1205=DIRECTION('',(0.,-1.,0.));
#1206=DIRECTION('',(-0.836017540028393,-7.77755135394988E-17,-0.548702718022131));
#1207=DIRECTION('',(0.,1.,0.));
#1208=DIRECTION('',(0.,0.,1.));
#1209=DIRECTION('',(0.,1.,0.));
#1210=DIRECTION('',(-1.,0.,-1.45698559662095E-15));
#1211=DIRECTION('',(0.,1.,0.));
#1212=DIRECTION('',(0.,1.,0.));
#1213=DIRECTION('',(-1.,0.,-1.45698559662095E-15));
#1214=DIRECTION('',(-1.,0.,0.));
#1215=DIRECTION('',(0.,0.,1.));
#1216=DIRECTION('',(0.,0.,1.));
#1217=DIRECTION('',(0.,1.,0.));
#1218=DIRECTION('',(0.,0.,1.));
#1219=DIRECTION('',(0.,1.,0.));
#1220=DIRECTION('',(0.,0.,1.));
#1221=DIRECTION('',(0.,-1.,0.));
#1222=DIRECTION('',(1.,0.,-6.12323399573677E-17));
#1223=DIRECTION('',(0.,-1.,0.));
#1224=DIRECTION('',(1.,0.,-6.12323399573677E-17));
#1225=DIRECTION('',(0.,1.,0.));
#1226=DIRECTION('',(0.,0.,1.));
#1227=DIRECTION('',(0.,-1.,0.));
#1228=DIRECTION('',(1.,0.,0.));
#1229=DIRECTION('',(0.,-1.,0.));
#1230=DIRECTION('',(1.,0.,0.));
#1231=DIRECTION('',(0.,1.,0.));
#1232=DIRECTION('',(0.,0.,1.));
#1233=DIRECTION('',(0.,-1.,0.));
#1234=DIRECTION('',(1.,0.,0.));
#1235=DIRECTION('',(0.,-1.,0.));
#1236=DIRECTION('',(1.,0.,0.));
#1237=DIRECTION('',(0.,1.,0.));
#1238=DIRECTION('',(0.,0.,1.));
#1239=DIRECTION('',(0.,-1.,0.));
#1240=DIRECTION('',(1.,0.,0.));
#1241=DIRECTION('',(0.,-1.,0.));
#1242=DIRECTION('',(1.,0.,0.));
#1243=DIRECTION('',(0.,1.,0.));
#1244=DIRECTION('',(0.,0.,1.));
#1245=DIRECTION('',(0.,-1.,0.));
#1246=DIRECTION('',(0.,0.,-1.));
#1247=DIRECTION('',(0.,-1.,0.));
#1248=DIRECTION('',(0.,0.,-1.));
#1249=DIRECTION('',(0.,1.,0.));
#1250=DIRECTION('',(0.,0.,1.));
#1251=DIRECTION('',(0.,-1.,0.));
#1252=DIRECTION('',(0.,0.,-1.));
#1253=DIRECTION('',(0.,-1.,0.));
#1254=DIRECTION('',(0.,0.,-1.));
#1255=DIRECTION('',(0.,-1.,0.));
#1256=DIRECTION('',(1.,0.,0.));
#1257=DIRECTION('',(0.,-1.,0.));
#1258=DIRECTION('',(1.,0.,0.));
#1259=DIRECTION('',(0.,0.,1.));
#1260=DIRECTION('',(1.,0.,0.));
#1261=DIRECTION('',(0.,1.,0.));
#1262=DIRECTION('',(0.,0.,1.));
#1263=DIRECTION('',(0.,1.,0.));
#1264=DIRECTION('',(2.91397119324188E-15,0.,-1.));
#1265=DIRECTION('',(0.,1.,0.));
#1266=DIRECTION('',(0.,1.,0.));
#1267=DIRECTION('',(2.91397119324188E-15,0.,-1.));
#1268=DIRECTION('',(0.,1.,0.));
#1269=DIRECTION('',(0.,0.,-1.));
#1270=DIRECTION('',(-1.,0.,0.));
#1271=DIRECTION('',(-1.,0.,0.));
#1272=DIRECTION('',(0.,1.,0.));
#1273=DIRECTION('',(-1.,0.,0.));
#1274=DIRECTION('',(0.,1.,0.));
#1275=DIRECTION('',(0.,0.,1.));
#1276=DIRECTION('',(0.,-1.,0.));
#1277=DIRECTION('',(-2.91397119324188E-15,0.,-1.));
#1278=DIRECTION('',(0.,1.,0.));
#1279=DIRECTION('',(0.,-1.,0.));
#1280=DIRECTION('',(-2.91397119324188E-15,0.,-1.));
#1281=DIRECTION('',(-1.,0.,0.));
#1282=DIRECTION('',(0.,0.,1.));
#1283=DIRECTION('',(0.,0.,1.));
#1284=DIRECTION('',(0.,1.,0.));
#1285=DIRECTION('',(0.,0.,1.));
#1286=DIRECTION('',(0.,1.,0.));
#1287=DIRECTION('',(0.,0.,1.));
#1288=DIRECTION('',(0.,-1.,0.));
#1289=DIRECTION('',(1.,0.,4.3709567898628E-15));
#1290=DIRECTION('',(0.,1.,0.));
#1291=DIRECTION('',(0.,-1.,0.));
#1292=DIRECTION('',(1.,0.,4.3709567898628E-15));
#1293=DIRECTION('',(-0.730420688502063,0.,-0.682997524013208));
#1294=DIRECTION('',(-0.682997524013208,0.,0.730420688502063));
#1295=DIRECTION('',(-0.682997524013208,0.,0.730420688502063));
#1296=DIRECTION('',(0.,1.,0.));
#1297=DIRECTION('',(-0.682997524013208,0.,0.730420688502063));
#1298=DIRECTION('',(0.,1.,0.));
#1299=DIRECTION('',(0.,0.,1.));
#1300=DIRECTION('',(0.,1.,0.));
#1301=DIRECTION('',(-0.730420688502063,0.,0.682997524013208));
#1302=DIRECTION('',(0.,1.,0.));
#1303=DIRECTION('',(0.,1.,0.));
#1304=DIRECTION('',(-0.730420688502063,0.,0.682997524013208));
#1305=DIRECTION('',(-0.730420688502063,0.,0.682997524013208));
#1306=DIRECTION('',(0.682997524013208,0.,0.730420688502063));
#1307=DIRECTION('',(0.682997524013208,0.,0.730420688502063));
#1308=DIRECTION('',(0.,1.,0.));
#1309=DIRECTION('',(0.682997524013208,0.,0.730420688502063));
#1310=DIRECTION('',(0.,1.,0.));
#1311=DIRECTION('',(0.,0.,1.));
#1312=DIRECTION('',(0.,1.,0.));
#1313=DIRECTION('',(-1.,0.,4.3709567898628E-15));
#1314=DIRECTION('',(0.,1.,0.));
#1315=DIRECTION('',(0.,1.,0.));
#1316=DIRECTION('',(-1.,0.,4.3709567898628E-15));
#1317=DIRECTION('',(0.,1.,0.));
#1318=DIRECTION('',(0.,0.,1.));
#1319=DIRECTION('',(0.,-1.,0.));
#1320=DIRECTION('',(1.,0.,0.));
#1321=DIRECTION('',(0.,-1.,0.));
#1322=DIRECTION('',(1.,0.,0.));
#1323=DIRECTION('',(0.,1.,0.));
#1324=DIRECTION('',(0.,0.,1.));
#1325=DIRECTION('',(0.,-1.,0.));
#1326=DIRECTION('',(1.,0.,0.));
#1327=DIRECTION('',(0.,-1.,0.));
#1328=DIRECTION('',(1.,0.,0.));
#1329=DIRECTION('',(0.,1.,0.));
#1330=DIRECTION('',(0.,0.,1.));
#1331=DIRECTION('',(0.,-1.,0.));
#1332=DIRECTION('',(1.,0.,0.));
#1333=DIRECTION('',(0.,-1.,0.));
#1334=DIRECTION('',(1.,0.,0.));
#1335=DIRECTION('',(0.,1.,0.));
#1336=DIRECTION('',(0.,0.,1.));
#1337=DIRECTION('',(0.,-1.,0.));
#1338=DIRECTION('',(0.891406266244368,0.,0.453205106436672));
#1339=DIRECTION('',(0.,-1.,0.));
#1340=DIRECTION('',(0.891406266244368,0.,0.453205106436672));
#1341=DIRECTION('',(0.,1.,0.));
#1342=DIRECTION('',(0.,0.,1.));
#1343=DIRECTION('',(0.,-1.,0.));
#1344=DIRECTION('',(0.999999812788522,0.,0.000611901070322014));
#1345=DIRECTION('',(0.,-1.,0.));
#1346=DIRECTION('',(0.999999812788522,0.,0.000611901070322014));
#1347=DIRECTION('',(0.,1.,0.));
#1348=DIRECTION('',(0.,0.,1.));
#1349=DIRECTION('',(0.,-1.,0.));
#1350=DIRECTION('',(1.,0.,0.));
#1351=DIRECTION('',(0.,-1.,0.));
#1352=DIRECTION('',(1.,0.,0.));
#1353=DIRECTION('',(0.,1.,0.));
#1354=DIRECTION('',(0.,0.,1.));
#1355=DIRECTION('',(0.,-1.,0.));
#1356=DIRECTION('',(1.,0.,-6.12323399573677E-17));
#1357=DIRECTION('',(0.,-1.,0.));
#1358=DIRECTION('',(1.,0.,-6.12323399573677E-17));
#1359=DIRECTION('',(-1.,0.,0.));
#1360=DIRECTION('',(0.,0.,1.));
#1361=DIRECTION('',(0.,0.,1.));
#1362=DIRECTION('',(0.,0.,1.));
#1363=DIRECTION('',(0.,1.,0.));
#1364=DIRECTION('',(0.,0.,1.));
#1365=DIRECTION('',(0.,-1.,0.));
#1366=DIRECTION('',(1.,0.,0.));
#1367=DIRECTION('',(0.,-1.,0.));
#1368=DIRECTION('',(1.,0.,0.));
#1369=DIRECTION('',(0.,-1.,0.));
#1370=DIRECTION('',(1.,0.,0.));
#1371=DIRECTION('',(0.,-1.,0.));
#1372=DIRECTION('',(1.,0.,0.));
#1373=DIRECTION('',(0.,0.,1.));
#1374=DIRECTION('',(1.,0.,0.));
#1375=DIRECTION('',(0.,1.,0.));
#1376=DIRECTION('',(1.,0.,0.));
#1377=DIRECTION('',(0.,1.,0.));
#1378=DIRECTION('',(0.,0.,1.));
#1379=DIRECTION('',(1.,0.,7.09754928537241E-16));
#1380=DIRECTION('',(0.,1.,0.));
#1381=DIRECTION('',(0.,0.,1.));
#1382=DIRECTION('',(0.5,0.,0.866025403784439));
#1383=DIRECTION('',(0.,1.,0.));
#1384=DIRECTION('',(0.,0.,1.));
#1385=DIRECTION('',(-0.5,0.,0.866025403784439));
#1386=DIRECTION('',(0.,1.,0.));
#1387=DIRECTION('',(0.,0.,1.));
#1388=DIRECTION('',(-1.,0.,0.));
#1389=DIRECTION('',(0.,1.,0.));
#1390=DIRECTION('',(0.,0.,1.));
#1391=DIRECTION('',(-0.5,0.,-0.866025403784439));
#1392=DIRECTION('',(0.,1.,0.));
#1393=DIRECTION('',(0.,0.,1.));
#1394=DIRECTION('',(0.5,0.,-0.866025403784439));
#1395=DIRECTION('',(0.,1.,0.));
#1396=DIRECTION('',(0.,0.,1.));
#1397=DIRECTION('',(0.,1.,0.));
#1398=DIRECTION('',(1.,0.,0.));
#1399=DIRECTION('',(0.,1.,0.));
#1400=DIRECTION('',(0.,0.,1.));
#1401=DIRECTION('',(0.,1.,0.));
#1402=DIRECTION('',(0.,0.,1.));
#1403=DIRECTION('',(1.,0.,7.09754928537241E-16));
#1404=DIRECTION('',(0.,1.,0.));
#1405=DIRECTION('',(0.,0.,1.));
#1406=DIRECTION('',(0.5,0.,-0.866025403784439));
#1407=DIRECTION('',(0.,1.,0.));
#1408=DIRECTION('',(0.,0.,1.));
#1409=DIRECTION('',(-0.5,0.,-0.866025403784439));
#1410=DIRECTION('',(0.,1.,0.));
#1411=DIRECTION('',(0.,0.,1.));
#1412=DIRECTION('',(-1.,0.,0.));
#1413=DIRECTION('',(0.,1.,0.));
#1414=DIRECTION('',(0.,0.,1.));
#1415=DIRECTION('',(-0.5,0.,0.866025403784439));
#1416=DIRECTION('',(0.,1.,0.));
#1417=DIRECTION('',(0.,0.,1.));
#1418=DIRECTION('',(0.5,0.,0.866025403784439));
#1419=DIRECTION('',(0.866025403784438,0.,0.5));
#1420=DIRECTION('',(0.5,0.,-0.866025403784438));
#1421=DIRECTION('',(0.,-1.,0.));
#1422=DIRECTION('',(0.,-1.,0.));
#1423=DIRECTION('',(0.866025403784439,0.,-0.5));
#1424=DIRECTION('',(-0.5,0.,-0.866025403784439));
#1425=DIRECTION('',(0.,-1.,0.));
#1426=DIRECTION('',(0.,-1.,0.));
#1427=DIRECTION('',(0.,0.,-1.));
#1428=DIRECTION('',(-1.,0.,0.));
#1429=DIRECTION('',(0.,-1.,0.));
#1430=DIRECTION('',(0.,-1.,0.));
#1431=DIRECTION('',(-0.866025403784438,0.,-0.5));
#1432=DIRECTION('',(-0.5,0.,0.866025403784439));
#1433=DIRECTION('',(0.,-1.,0.));
#1434=DIRECTION('',(0.,-1.,0.));
#1435=DIRECTION('',(-0.866025403784439,0.,0.5));
#1436=DIRECTION('',(0.5,0.,0.866025403784439));
#1437=DIRECTION('',(0.,-1.,0.));
#1438=DIRECTION('',(0.,-1.,0.));
#1439=DIRECTION('',(-7.09754928537241E-16,0.,1.));
#1440=DIRECTION('',(1.,0.,7.09754928537241E-16));
#1441=DIRECTION('',(0.,-1.,0.));
#1442=DIRECTION('',(0.,-1.,0.));
#1443=DIRECTION('',(0.,-1.,0.));
#1444=DIRECTION('',(0.,0.,-1.));
#1445=DIRECTION('',(0.,-1.,0.));
#1446=DIRECTION('',(0.,0.,-1.));
#1447=DIRECTION('',(0.,-1.,0.));
#1448=DIRECTION('',(0.,0.,-1.));
#1449=DIRECTION('',(0.,-1.,0.));
#1450=DIRECTION('',(0.,0.,-1.));
#1451=DIRECTION('',(0.,-1.,0.));
#1452=DIRECTION('',(0.,0.,-1.));
#1453=DIRECTION('',(0.,-1.,0.));
#1454=DIRECTION('',(0.,0.,-1.));
#1455=DIRECTION('',(0.,-1.,0.));
#1456=DIRECTION('',(0.,0.,-1.));
#1457=CARTESIAN_POINT('',(0.,0.,0.));
#1458=CARTESIAN_POINT('',(-0.041275,-0.0254,-0.041275));
#1459=CARTESIAN_POINT('',(-0.041275,-0.0254,-0.041275));
#1460=CARTESIAN_POINT('',(-0.041275,-0.0254,-0.0460375));
#1461=CARTESIAN_POINT('',(-0.041275,-0.00635,-0.041275));
#1462=CARTESIAN_POINT('',(-0.041275,-0.00635,-0.0460375));
#1463=CARTESIAN_POINT('',(-0.041275,-0.0254,-0.041275));
#1464=CARTESIAN_POINT('',(-0.041275,-0.0254,-0.041275));
#1465=CARTESIAN_POINT('',(-0.041275,-0.0254,-0.0438277));
#1466=CARTESIAN_POINT('',(-0.041275,-0.00635,-0.041275));
#1467=CARTESIAN_POINT('',(-0.041275,-0.00635,-0.041275));
#1468=CARTESIAN_POINT('',(-0.041275,-0.00635,-0.0438277));
#1469=CARTESIAN_POINT('',(-0.041275,-0.162491573300374,-0.041275));
#1470=CARTESIAN_POINT('',(0.,0.,0.));
#1471=CARTESIAN_POINT('',(-6.93889390390723E-18,-0.03175,-0.0460375));
#1472=CARTESIAN_POINT('',(-6.93889390390723E-18,-0.0254,-0.0460375));
#1473=CARTESIAN_POINT('',(0.041275,-0.0254,-0.0460375));
#1474=CARTESIAN_POINT('',(-0.041275,-0.0254,-0.0460375));
#1475=CARTESIAN_POINT('',(0.041275,-0.03175,-0.0460375));
#1476=CARTESIAN_POINT('',(0.041275,-0.03175,-0.0460375));
#1477=CARTESIAN_POINT('',(-6.93889390390723E-18,-0.03175,-0.0460375));
#1478=CARTESIAN_POINT('',(-0.041275,-0.03175,-0.0460375));
#1479=CARTESIAN_POINT('',(-0.041275,-0.03175,-0.0460375));
#1480=CARTESIAN_POINT('',(0.041275,-0.03175,-0.041275));
#1481=CARTESIAN_POINT('',(0.041275,-0.0254,-0.041275));
#1482=CARTESIAN_POINT('',(0.0460375,-0.0254,-0.041275));
#1483=CARTESIAN_POINT('',(0.0460375,-0.03175,-0.041275));
#1484=CARTESIAN_POINT('',(0.0460375,-0.03175,-0.041275));
#1485=CARTESIAN_POINT('',(0.041275,-0.03175,-0.041275));
#1486=CARTESIAN_POINT('',(0.0460375,-0.03175,-2.08166817117217E-17));
#1487=CARTESIAN_POINT('',(0.0460375,-0.0254,-2.08166817117217E-17));
#1488=CARTESIAN_POINT('',(0.0460375,-0.0254,0.041275));
#1489=CARTESIAN_POINT('',(0.0460375,-0.03175,0.041275));
#1490=CARTESIAN_POINT('',(0.0460375,-0.03175,0.041275));
#1491=CARTESIAN_POINT('',(0.0460375,-0.03175,-2.08166817117217E-17));
#1492=CARTESIAN_POINT('',(0.041275,-0.03175,0.041275));
#1493=CARTESIAN_POINT('',(0.041275,-0.0254,0.041275));
#1494=CARTESIAN_POINT('',(0.0372934664656148,-0.0254,0.0438881966945804));
#1495=CARTESIAN_POINT('',(0.0372934664656148,-0.03175,0.0438881966945804));
#1496=CARTESIAN_POINT('',(0.0372934664656148,-0.03175,0.0438881966945804));
#1497=CARTESIAN_POINT('',(0.041275,-0.03175,0.041275));
#1498=CARTESIAN_POINT('',(-3.81639164714897E-17,-0.03175,0.068364987472744));
#1499=CARTESIAN_POINT('',(-3.81639164714897E-17,-0.0254,0.068364987472744));
#1500=CARTESIAN_POINT('',(-0.0372934664656148,-0.0254,0.0438881966945804));
#1501=CARTESIAN_POINT('',(-0.0372934664656148,-0.03175,0.0438881966945804));
#1502=CARTESIAN_POINT('',(-0.0372934664656148,-0.03175,0.0438881966945804));
#1503=CARTESIAN_POINT('',(-3.81639164714897E-17,-0.03175,0.068364987472744));
#1504=CARTESIAN_POINT('',(-0.041275,-0.03175,0.041275));
#1505=CARTESIAN_POINT('',(-0.041275,-0.0254,0.041275));
#1506=CARTESIAN_POINT('',(-0.0460375,-0.0254,0.041275));
#1507=CARTESIAN_POINT('',(-0.0460375,-0.03175,0.041275));
#1508=CARTESIAN_POINT('',(-0.0460375,-0.03175,0.041275));
#1509=CARTESIAN_POINT('',(-0.041275,-0.03175,0.041275));
#1510=CARTESIAN_POINT('',(-0.0460375,-0.03175,-2.08166817117217E-17));
#1511=CARTESIAN_POINT('',(-0.0460375,-0.0254,-2.08166817117217E-17));
#1512=CARTESIAN_POINT('',(-0.0460375,-0.0254,-0.041275));
#1513=CARTESIAN_POINT('',(-0.0460375,-0.03175,-0.041275));
#1514=CARTESIAN_POINT('',(-0.0460375,-0.03175,-0.041275));
#1515=CARTESIAN_POINT('',(-0.0460375,-0.03175,-2.08166817117217E-17));
#1516=CARTESIAN_POINT('',(0.,-0.03175,1.74971411428178E-18));
#1517=CARTESIAN_POINT('',(0.,-0.03175,1.74971411428178E-18));
#1518=CARTESIAN_POINT('',(0.0142875,-0.03175,8.74857057140889E-19));
#1519=CARTESIAN_POINT('',(0.,-0.0254,1.74971411428178E-18));
#1520=CARTESIAN_POINT('',(0.0142875,-0.0254,8.74857057140889E-19));
#1521=CARTESIAN_POINT('',(0.041275,-0.03175,-0.041275));
#1522=CARTESIAN_POINT('',(0.041275,-0.03175,-0.041275));
#1523=CARTESIAN_POINT('',(0.0438277,-0.03175,-0.041275));
#1524=CARTESIAN_POINT('',(0.041275,-0.0254,-0.041275));
#1525=CARTESIAN_POINT('',(0.0438277,-0.0254,-0.041275));
#1526=CARTESIAN_POINT('',(0.041275,-0.03175,0.041275));
#1527=CARTESIAN_POINT('',(0.041275,-0.03175,0.041275));
#1528=CARTESIAN_POINT('',(0.0438277,-0.03175,0.041275));
#1529=CARTESIAN_POINT('',(0.041275,-0.0254,0.041275));
#1530=CARTESIAN_POINT('',(0.0438277,-0.0254,0.041275));
#1531=CARTESIAN_POINT('',(-0.041275,-0.03175,0.041275));
#1532=CARTESIAN_POINT('',(-0.041275,-0.03175,0.041275));
#1533=CARTESIAN_POINT('',(-0.0387223,-0.03175,0.041275));
#1534=CARTESIAN_POINT('',(-0.041275,-0.0254,0.041275));
#1535=CARTESIAN_POINT('',(-0.0387223,-0.0254,0.041275));
#1536=CARTESIAN_POINT('',(-0.041275,-0.03175,-0.041275));
#1537=CARTESIAN_POINT('',(-0.041275,-0.0254,-0.041275));
#1538=CARTESIAN_POINT('',(-0.041275,-0.03175,-0.041275));
#1539=CARTESIAN_POINT('',(-0.041275,-0.03175,-0.041275));
#1540=CARTESIAN_POINT('',(-0.041275,-0.03175,-0.041275));
#1541=CARTESIAN_POINT('',(-0.041275,-0.03175,-0.0438277));
#1542=CARTESIAN_POINT('',(-0.041275,-0.0254,-0.041275));
#1543=CARTESIAN_POINT('',(-0.041275,-0.0254,-0.0438277));
#1544=CARTESIAN_POINT('',(0.,-0.03175,-6.93889390390723E-18));
#1545=CARTESIAN_POINT('',(0.,-0.0254,-6.93889390390723E-18));
#1546=CARTESIAN_POINT('',(0.,0.,0.));
#1547=CARTESIAN_POINT('',(-0.041275,-0.00635,-0.041275));
#1548=CARTESIAN_POINT('',(-0.041275,0.,-0.041275));
#1549=CARTESIAN_POINT('',(-0.041275,0.,-0.0460375));
#1550=CARTESIAN_POINT('',(-0.0460375,0.,-0.041275));
#1551=CARTESIAN_POINT('',(-0.041275,-0.00635,-0.0460375));
#1552=CARTESIAN_POINT('',(-0.041275,-0.00635,-0.0460375));
#1553=CARTESIAN_POINT('',(-0.041275,-0.00635,-0.041275));
#1554=CARTESIAN_POINT('',(-0.0460375,-0.00635,-0.041275));
#1555=CARTESIAN_POINT('',(-0.0460375,-0.00635,-0.041275));
#1556=CARTESIAN_POINT('',(-0.0206375,-0.00635,-0.0460375));
#1557=CARTESIAN_POINT('',(-0.0206375,0.,-0.0460375));
#1558=CARTESIAN_POINT('',(0.041275,0.,-0.0460375));
#1559=CARTESIAN_POINT('',(0.041275,-0.00635,-0.0460375));
#1560=CARTESIAN_POINT('',(0.041275,-0.00635,-0.0460375));
#1561=CARTESIAN_POINT('',(-0.0206375,-0.00635,-0.0460375));
#1562=CARTESIAN_POINT('',(0.041275,-0.00635,-0.041275));
#1563=CARTESIAN_POINT('',(0.041275,0.,-0.041275));
#1564=CARTESIAN_POINT('',(0.0460375,0.,-0.041275));
#1565=CARTESIAN_POINT('',(0.0460375,-0.00635,-0.041275));
#1566=CARTESIAN_POINT('',(0.0460375,-0.00635,-0.041275));
#1567=CARTESIAN_POINT('',(0.041275,-0.00635,-0.041275));
#1568=CARTESIAN_POINT('',(0.0460375,-0.00635,-2.08166817117217E-17));
#1569=CARTESIAN_POINT('',(0.0460375,0.,-2.08166817117217E-17));
#1570=CARTESIAN_POINT('',(0.0460375,0.,0.041275));
#1571=CARTESIAN_POINT('',(0.0460375,-0.00635,0.041275));
#1572=CARTESIAN_POINT('',(0.0460375,-0.00635,0.041275));
#1573=CARTESIAN_POINT('',(0.0460375,-0.00635,-2.08166817117217E-17));
#1574=CARTESIAN_POINT('',(0.041275,-0.00635,0.041275));
#1575=CARTESIAN_POINT('',(0.041275,0.,0.041275));
#1576=CARTESIAN_POINT('',(0.0439231073918388,0.,0.0452334003702618));
#1577=CARTESIAN_POINT('',(0.0439231073918388,-0.00635,0.0452334003702618));
#1578=CARTESIAN_POINT('',(0.0439231073918388,-0.00635,0.0452334003702618));
#1579=CARTESIAN_POINT('',(0.041275,-0.00635,0.041275));
#1580=CARTESIAN_POINT('',(0.0335569821258897,-0.00635,0.0563192858788406));
#1581=CARTESIAN_POINT('',(0.0335569821258897,0.,0.0563192858788406));
#1582=CARTESIAN_POINT('',(0.0231908568599405,0.,0.0674051713874194));
#1583=CARTESIAN_POINT('',(0.0231908568599405,-0.00635,0.0674051713874194));
#1584=CARTESIAN_POINT('',(0.0231908568599405,-0.00635,0.0674051713874194));
#1585=CARTESIAN_POINT('',(0.0335569821258897,-0.00635,0.0563192858788406));
#1586=CARTESIAN_POINT('',(6.93889390390723E-18,-0.00635,0.04572));
#1587=CARTESIAN_POINT('',(6.93889390390723E-18,0.,0.04572));
#1588=CARTESIAN_POINT('',(-0.0231908568599405,0.,0.0674051713874194));
#1589=CARTESIAN_POINT('',(-0.0231908568599405,-0.00635,0.0674051713874194));
#1590=CARTESIAN_POINT('',(-0.0231908568599405,-0.00635,0.0674051713874194));
#1591=CARTESIAN_POINT('',(6.93889390390723E-18,-0.00635,0.04572));
#1592=CARTESIAN_POINT('',(-0.0335569821258897,-0.00635,0.0563192858788406));
#1593=CARTESIAN_POINT('',(-0.0335569821258897,0.,0.0563192858788406));
#1594=CARTESIAN_POINT('',(-0.0439231073918388,0.,0.0452334003702618));
#1595=CARTESIAN_POINT('',(-0.0439231073918388,-0.00635,0.0452334003702618));
#1596=CARTESIAN_POINT('',(-0.0439231073918388,-0.00635,0.0452334003702618));
#1597=CARTESIAN_POINT('',(-0.0335569821258897,-0.00635,0.0563192858788406));
#1598=CARTESIAN_POINT('',(-0.041275,-0.00635,0.041275));
#1599=CARTESIAN_POINT('',(-0.041275,0.,0.041275));
#1600=CARTESIAN_POINT('',(-0.0460375,0.,0.041275));
#1601=CARTESIAN_POINT('',(-0.0460375,-0.00635,0.041275));
#1602=CARTESIAN_POINT('',(-0.0460375,-0.00635,0.041275));
#1603=CARTESIAN_POINT('',(-0.041275,-0.00635,0.041275));
#1604=CARTESIAN_POINT('',(0.041275,-0.00635,-0.041275));
#1605=CARTESIAN_POINT('',(0.041275,-0.00635,-0.041275));
#1606=CARTESIAN_POINT('',(0.0438277,-0.00635,-0.041275));
#1607=CARTESIAN_POINT('',(0.041275,0.,-0.041275));
#1608=CARTESIAN_POINT('',(0.0438277,0.,-0.041275));
#1609=CARTESIAN_POINT('',(0.041275,-0.00635,0.041275));
#1610=CARTESIAN_POINT('',(0.041275,-0.00635,0.041275));
#1611=CARTESIAN_POINT('',(0.0438277,-0.00635,0.041275));
#1612=CARTESIAN_POINT('',(0.041275,0.,0.041275));
#1613=CARTESIAN_POINT('',(0.0438277,0.,0.041275));
#1614=CARTESIAN_POINT('',(-0.041275,-0.00635,0.041275));
#1615=CARTESIAN_POINT('',(-0.041275,-0.00635,0.041275));
#1616=CARTESIAN_POINT('',(-0.0387223,-0.00635,0.041275));
#1617=CARTESIAN_POINT('',(-0.041275,0.,0.041275));
#1618=CARTESIAN_POINT('',(-0.0387223,0.,0.041275));
#1619=CARTESIAN_POINT('',(0.0254,-0.00635,0.04572));
#1620=CARTESIAN_POINT('',(0.0254,-0.00635,0.04572));
#1621=CARTESIAN_POINT('',(0.027675492775842,-0.00635,0.0468768966752009));
#1622=CARTESIAN_POINT('',(0.0254,0.,0.04572));
#1623=CARTESIAN_POINT('',(0.027675492775842,0.,0.0468768966752009));
#1624=CARTESIAN_POINT('',(-0.0254,-0.00635,0.04572));
#1625=CARTESIAN_POINT('',(-0.0254,-0.00635,0.04572));
#1626=CARTESIAN_POINT('',(-0.0228473004778947,-0.00635,0.0457215619998622));
#1627=CARTESIAN_POINT('',(-0.0254,0.,0.04572));
#1628=CARTESIAN_POINT('',(-0.0228473004778947,0.,0.0457215619998622));
#1629=CARTESIAN_POINT('',(0.,-0.00635,0.04572));
#1630=CARTESIAN_POINT('',(0.,-0.00635,0.04572));
#1631=CARTESIAN_POINT('',(0.015875,-0.00635,0.04572));
#1632=CARTESIAN_POINT('',(0.,0.,0.04572));
#1633=CARTESIAN_POINT('',(0.015875,0.,0.04572));
#1634=CARTESIAN_POINT('',(0.,-0.00635,8.74857057140891E-19));
#1635=CARTESIAN_POINT('',(0.,-0.00635,8.74857057140891E-19));
#1636=CARTESIAN_POINT('',(0.0142875,-0.00635,1.92592994438724E-34));
#1637=CARTESIAN_POINT('',(0.,0.,8.74857057140891E-19));
#1638=CARTESIAN_POINT('',(0.0142875,0.,1.92592994438724E-34));
#1639=CARTESIAN_POINT('',(-0.0460375,-0.00635,-2.08166817117217E-17));
#1640=CARTESIAN_POINT('',(-0.0460375,0.,-2.08166817117217E-17));
#1641=CARTESIAN_POINT('',(-0.0460375,-0.00635,-2.08166817117217E-17));
#1642=CARTESIAN_POINT('',(-0.041275,-0.00635,-0.041275));
#1643=CARTESIAN_POINT('',(-0.041275,-0.00635,-0.041275));
#1644=CARTESIAN_POINT('',(-0.0387223,-0.00635,-0.041275));
#1645=CARTESIAN_POINT('',(-0.041275,0.,-0.041275));
#1646=CARTESIAN_POINT('',(-0.0387223,0.,-0.041275));
#1647=CARTESIAN_POINT('',(0.,-0.00635,0.01571625));
#1648=CARTESIAN_POINT('',(0.,0.,0.01571625));
#1649=CARTESIAN_POINT('',(0.,0.,0.));
#1650=CARTESIAN_POINT('',(-1.7347234759768E-18,-0.1000125,8.74857057140891E-19));
#1651=CARTESIAN_POINT('',(0.,-0.1000125,7.51210593064978E-19));
#1652=CARTESIAN_POINT('',(0.,-0.1000125,0.0020193));
#1653=CARTESIAN_POINT('',(-4.33680868994202E-18,-0.1000125,0.00635));
#1654=CARTESIAN_POINT('',(-0.00263498102459962,-0.1000125,0.00635));
#1655=CARTESIAN_POINT('',(0.00263498102459961,-0.1000125,0.00635));
#1656=CARTESIAN_POINT('',(0.,-0.1000125,4.53884719933988E-19));
#1657=CARTESIAN_POINT('',(-0.00418177080173138,-0.1000125,0.00545696050579321));
#1658=CARTESIAN_POINT('',(-0.00549926131403119,-0.1000125,0.003175));
#1659=CARTESIAN_POINT('',(-0.00681675182633099,-0.1000125,0.000893039494206793));
#1660=CARTESIAN_POINT('',(0.,-0.1000125,4.53884719933988E-19));
#1661=CARTESIAN_POINT('',(-0.00681675182633099,-0.1000125,-0.000893039494206791));
#1662=CARTESIAN_POINT('',(-0.00549926131403119,-0.1000125,-0.003175));
#1663=CARTESIAN_POINT('',(-0.00418177080173137,-0.1000125,-0.00545696050579321));
#1664=CARTESIAN_POINT('',(0.,-0.1000125,4.53884719933988E-19));
#1665=CARTESIAN_POINT('',(-0.00263498102459962,-0.1000125,-0.00635));
#1666=CARTESIAN_POINT('',(1.3010426069826E-18,-0.1000125,-0.00635));
#1667=CARTESIAN_POINT('',(0.00263498102459962,-0.1000125,-0.00635));
#1668=CARTESIAN_POINT('',(0.,-0.1000125,4.53884719933988E-19));
#1669=CARTESIAN_POINT('',(0.00418177080173138,-0.1000125,-0.00545696050579321));
#1670=CARTESIAN_POINT('',(0.00549926131403119,-0.1000125,-0.003175));
#1671=CARTESIAN_POINT('',(0.00681675182633099,-0.1000125,-0.000893039494206791));
#1672=CARTESIAN_POINT('',(0.,-0.1000125,4.53884719933988E-19));
#1673=CARTESIAN_POINT('',(0.00681675182633099,-0.1000125,0.000893039494206794));
#1674=CARTESIAN_POINT('',(0.00549926131403118,-0.1000125,0.003175));
#1675=CARTESIAN_POINT('',(0.00418177080173138,-0.1000125,0.00545696050579321));
#1676=CARTESIAN_POINT('',(0.,-0.1000125,4.53884719933988E-19));
#1677=CARTESIAN_POINT('',(-1.7347234759768E-18,0.0015875,8.74857057140891E-19));
#1678=CARTESIAN_POINT('',(0.,0.0015875,7.51210593064978E-19));
#1679=CARTESIAN_POINT('',(0.,0.0015875,0.0020193));
#1680=CARTESIAN_POINT('',(0.,0.0015875,4.53884719933988E-19));
#1681=CARTESIAN_POINT('',(-0.00263498102459961,0.0015875,0.00635));
#1682=CARTESIAN_POINT('',(-0.00418177080173138,0.0015875,0.00545696050579321));
#1683=CARTESIAN_POINT('',(-4.33680868994202E-18,0.0015875,0.00635));
#1684=CARTESIAN_POINT('',(0.00263498102459961,0.0015875,0.00635));
#1685=CARTESIAN_POINT('',(0.,0.0015875,4.53884719933988E-19));
#1686=CARTESIAN_POINT('',(0.00418177080173138,0.0015875,0.00545696050579321));
#1687=CARTESIAN_POINT('',(0.00549926131403118,0.0015875,0.003175));
#1688=CARTESIAN_POINT('',(0.00681675182633099,0.0015875,0.000893039494206794));
#1689=CARTESIAN_POINT('',(0.,0.0015875,4.53884719933988E-19));
#1690=CARTESIAN_POINT('',(0.00681675182633099,0.0015875,-0.000893039494206791));
#1691=CARTESIAN_POINT('',(0.00549926131403119,0.0015875,-0.003175));
#1692=CARTESIAN_POINT('',(0.00418177080173138,0.0015875,-0.00545696050579321));
#1693=CARTESIAN_POINT('',(0.,0.0015875,4.53884719933988E-19));
#1694=CARTESIAN_POINT('',(0.00263498102459961,0.0015875,-0.00635));
#1695=CARTESIAN_POINT('',(1.3010426069826E-18,0.0015875,-0.00635));
#1696=CARTESIAN_POINT('',(-0.00263498102459961,0.0015875,-0.00635));
#1697=CARTESIAN_POINT('',(0.,0.0015875,4.53884719933988E-19));
#1698=CARTESIAN_POINT('',(-0.00418177080173138,0.0015875,-0.00545696050579321));
#1699=CARTESIAN_POINT('',(-0.00549926131403119,0.0015875,-0.003175));
#1700=CARTESIAN_POINT('',(-0.00681675182633099,0.0015875,-0.000893039494206793));
#1701=CARTESIAN_POINT('',(0.,0.0015875,4.53884719933988E-19));
#1702=CARTESIAN_POINT('',(-0.00681675182633099,0.0015875,0.000893039494206793));
#1703=CARTESIAN_POINT('',(-0.00549926131403119,0.0015875,0.003175));
#1704=CARTESIAN_POINT('',(0.00549926131403118,-0.1000125,0.003175));
#1705=CARTESIAN_POINT('',(0.00418177080173138,0.103695065777821,0.00545696050579321));
#1706=CARTESIAN_POINT('',(0.00681675182633099,0.103695065777821,0.000893039494206794));
#1707=CARTESIAN_POINT('',(0.00549926131403119,-0.1000125,-0.003175));
#1708=CARTESIAN_POINT('',(0.00681675182633099,0.103695065777821,-0.000893039494206791));
#1709=CARTESIAN_POINT('',(0.00418177080173138,0.103695065777821,-0.00545696050579321));
#1710=CARTESIAN_POINT('',(1.3010426069826E-18,-0.1000125,-0.00635));
#1711=CARTESIAN_POINT('',(0.00263498102459962,0.103695065777821,-0.00635));
#1712=CARTESIAN_POINT('',(-0.00263498102459962,0.103695065777821,-0.00635));
#1713=CARTESIAN_POINT('',(-0.00549926131403119,-0.1000125,-0.003175));
#1714=CARTESIAN_POINT('',(-0.00418177080173137,0.103695065777821,-0.00545696050579321));
#1715=CARTESIAN_POINT('',(-0.00681675182633099,0.103695065777821,-0.000893039494206791));
#1716=CARTESIAN_POINT('',(-0.00549926131403119,-0.1000125,0.003175));
#1717=CARTESIAN_POINT('',(-0.00681675182633099,0.103695065777821,0.000893039494206793));
#1718=CARTESIAN_POINT('',(-0.00418177080173138,0.103695065777821,0.00545696050579321));
#1719=CARTESIAN_POINT('',(-4.33680868994202E-18,-0.1000125,0.00635));
#1720=CARTESIAN_POINT('',(-0.00263498102459962,0.103695065777821,0.00635));
#1721=CARTESIAN_POINT('',(0.00263498102459961,0.103695065777821,0.00635));
#1722=CARTESIAN_POINT('',(0.,0.103695065777821,7.51210593064978E-19));
#1723=CARTESIAN_POINT('',(0.,0.103695065777821,4.53884719933988E-19));
#1724=CARTESIAN_POINT('',(0.,0.103695065777821,4.53884719933988E-19));
#1725=CARTESIAN_POINT('',(0.,0.103695065777821,4.53884719933988E-19));
#1726=CARTESIAN_POINT('',(0.,0.103695065777821,4.53884719933988E-19));
#1727=CARTESIAN_POINT('',(0.,0.103695065777821,4.53884719933988E-19));
#1728=CARTESIAN_POINT('',(0.,0.103695065777821,4.53884719933988E-19));
#1729=MECHANICAL_DESIGN_GEOMETRIC_PRESENTATION_REPRESENTATION('',(#971,
#910,#911,#912),#1733);
#1730=MECHANICAL_DESIGN_GEOMETRIC_PRESENTATION_REPRESENTATION('',(#972),
#1734);
#1731=MECHANICAL_DESIGN_GEOMETRIC_PRESENTATION_REPRESENTATION('',(#973),
#1735);
#1732=MECHANICAL_DESIGN_GEOMETRIC_PRESENTATION_REPRESENTATION('',(#974),
#1736);
#1733=(
GEOMETRIC_REPRESENTATION_CONTEXT(3)
GLOBAL_UNCERTAINTY_ASSIGNED_CONTEXT((#1737))
GLOBAL_UNIT_ASSIGNED_CONTEXT((#1749,#1745,#1741))
REPRESENTATION_CONTEXT('0.75 in. Round Spacer',
'TOP_LEVEL_ASSEMBLY_PART')
);
#1734=(
GEOMETRIC_REPRESENTATION_CONTEXT(3)
GLOBAL_UNCERTAINTY_ASSIGNED_CONTEXT((#1738))
GLOBAL_UNIT_ASSIGNED_CONTEXT((#1750,#1746,#1742))
REPRESENTATION_CONTEXT('Part 3','TOP_LEVEL_ASSEMBLY_PART')
);
#1735=(
GEOMETRIC_REPRESENTATION_CONTEXT(3)
GLOBAL_UNCERTAINTY_ASSIGNED_CONTEXT((#1739))
GLOBAL_UNIT_ASSIGNED_CONTEXT((#1751,#1747,#1743))
REPRESENTATION_CONTEXT('Part 1','TOP_LEVEL_ASSEMBLY_PART')
);
#1736=(
GEOMETRIC_REPRESENTATION_CONTEXT(3)
GLOBAL_UNCERTAINTY_ASSIGNED_CONTEXT((#1740))
GLOBAL_UNIT_ASSIGNED_CONTEXT((#1752,#1748,#1744))
REPRESENTATION_CONTEXT('4 in. Rounded Hex Shaft',
'TOP_LEVEL_ASSEMBLY_PART')
);
#1737=UNCERTAINTY_MEASURE_WITH_UNIT(LENGTH_MEASURE(1.E-8),#1749,
'DISTANCE_ACCURACY_VALUE','Maximum Tolerance applied to model');
#1738=UNCERTAINTY_MEASURE_WITH_UNIT(LENGTH_MEASURE(1.E-8),#1750,
'DISTANCE_ACCURACY_VALUE','Maximum Tolerance applied to model');
#1739=UNCERTAINTY_MEASURE_WITH_UNIT(LENGTH_MEASURE(1.E-8),#1751,
'DISTANCE_ACCURACY_VALUE','Maximum Tolerance applied to model');
#1740=UNCERTAINTY_MEASURE_WITH_UNIT(LENGTH_MEASURE(1.E-8),#1752,
'DISTANCE_ACCURACY_VALUE','Maximum Tolerance applied to model');
#1741=(
NAMED_UNIT(*)
SI_UNIT($,.STERADIAN.)
SOLID_ANGLE_UNIT()
);
#1742=(
NAMED_UNIT(*)
SI_UNIT($,.STERADIAN.)
SOLID_ANGLE_UNIT()
);
#1743=(
NAMED_UNIT(*)
SI_UNIT($,.STERADIAN.)
SOLID_ANGLE_UNIT()
);
#1744=(
NAMED_UNIT(*)
SI_UNIT($,.STERADIAN.)
SOLID_ANGLE_UNIT()
);
#1745=(
NAMED_UNIT(*)
PLANE_ANGLE_UNIT()
SI_UNIT($,.RADIAN.)
);
#1746=(
NAMED_UNIT(*)
PLANE_ANGLE_UNIT()
SI_UNIT($,.RADIAN.)
);
#1747=(
NAMED_UNIT(*)
PLANE_ANGLE_UNIT()
SI_UNIT($,.RADIAN.)
);
#1748=(
NAMED_UNIT(*)
PLANE_ANGLE_UNIT()
SI_UNIT($,.RADIAN.)
);
#1749=(
LENGTH_UNIT()
NAMED_UNIT(*)
SI_UNIT($,.METRE.)
);
#1750=(
LENGTH_UNIT()
NAMED_UNIT(*)
SI_UNIT($,.METRE.)
);
#1751=(
LENGTH_UNIT()
NAMED_UNIT(*)
SI_UNIT($,.METRE.)
);
#1752=(
LENGTH_UNIT()
NAMED_UNIT(*)
SI_UNIT($,.METRE.)
);
#1753=PRODUCT_DEFINITION_SHAPE('','',#1757);
#1754=PRODUCT_DEFINITION_SHAPE('','',#1758);
#1755=PRODUCT_DEFINITION_SHAPE('','',#1759);
#1756=PRODUCT_DEFINITION_SHAPE('','',#1760);
#1757=PRODUCT_DEFINITION('','',#1765,#1761);
#1758=PRODUCT_DEFINITION('','',#1766,#1762);
#1759=PRODUCT_DEFINITION('','',#1767,#1763);
#1760=PRODUCT_DEFINITION('','',#1768,#1764);
#1761=PRODUCT_DEFINITION_CONTEXT('',#1789,'design');
#1762=PRODUCT_DEFINITION_CONTEXT('',#1790,'design');
#1763=PRODUCT_DEFINITION_CONTEXT('',#1791,'design');
#1764=PRODUCT_DEFINITION_CONTEXT('',#1792,'design');
#1765=PRODUCT_DEFINITION_FORMATION_WITH_SPECIFIED_SOURCE('','',#1773,
 .NOT_KNOWN.);
#1766=PRODUCT_DEFINITION_FORMATION_WITH_SPECIFIED_SOURCE('','',#1774,
 .NOT_KNOWN.);
#1767=PRODUCT_DEFINITION_FORMATION_WITH_SPECIFIED_SOURCE('','',#1775,
 .NOT_KNOWN.);
#1768=PRODUCT_DEFINITION_FORMATION_WITH_SPECIFIED_SOURCE('','',#1776,
 .NOT_KNOWN.);
#1769=PRODUCT_RELATED_PRODUCT_CATEGORY('','',(#1773));
#1770=PRODUCT_RELATED_PRODUCT_CATEGORY('','',(#1774));
#1771=PRODUCT_RELATED_PRODUCT_CATEGORY('','',(#1775));
#1772=PRODUCT_RELATED_PRODUCT_CATEGORY('','',(#1776));
#1773=PRODUCT('0.75 in. Round Spacer','0.75 in. Round Spacer',
'0.75 in. Round Spacer',(#1781));
#1774=PRODUCT('Part 3','Part 3','Part 3',(#1782));
#1775=PRODUCT('Part 1','Part 1','Part 1',(#1783));
#1776=PRODUCT('4 in. Rounded Hex Shaft','4 in. Rounded Hex Shaft',
'4 in. Rounded Hex Shaft',(#1784));
#1777=PRODUCT_CATEGORY('','');
#1778=PRODUCT_CATEGORY('','');
#1779=PRODUCT_CATEGORY('','');
#1780=PRODUCT_CATEGORY('','');
#1781=PRODUCT_CONTEXT('',#1789,'mechanical');
#1782=PRODUCT_CONTEXT('',#1790,'mechanical');
#1783=PRODUCT_CONTEXT('',#1791,'mechanical');
#1784=PRODUCT_CONTEXT('',#1792,'mechanical');
#1785=APPLICATION_PROTOCOL_DEFINITION('international standard',
'ap242_managed_model_based_3d_engineering',2020,#1789);
#1786=APPLICATION_PROTOCOL_DEFINITION('international standard',
'ap242_managed_model_based_3d_engineering',2020,#1790);
#1787=APPLICATION_PROTOCOL_DEFINITION('international standard',
'ap242_managed_model_based_3d_engineering',2020,#1791);
#1788=APPLICATION_PROTOCOL_DEFINITION('international standard',
'ap242_managed_model_based_3d_engineering',2020,#1792);
#1789=APPLICATION_CONTEXT('managed model based 3d engineering');
#1790=APPLICATION_CONTEXT('managed model based 3d engineering');
#1791=APPLICATION_CONTEXT('managed model based 3d engineering');
#1792=APPLICATION_CONTEXT('managed model based 3d engineering');
ENDSEC;
END-ISO-10303-21;
